<svg width="197" height="197" viewBox="0 0 197 197" fill="none" xmlns="http://www.w3.org/2000/svg">
<path d="M122.926 38.0869L123.296 38.6377L123.947 38.5098L166.884 30.1152L158.49 73.0527L158.362 73.7041L158.913 74.0742L195.207 98.5L158.913 122.926L158.362 123.296L158.49 123.947L166.884 166.884L123.947 158.49L123.296 158.362L122.926 158.913L98.5 195.207L74.0742 158.913L73.7041 158.362L73.0527 158.49L30.1152 166.884L38.5098 123.947L38.6377 123.296L38.0869 122.926L1.79199 98.5L38.0869 74.0742L38.6377 73.7041L38.5098 73.0527L30.1152 30.1152L73.0527 38.5098L73.7041 38.6377L74.0742 38.0869L98.5 1.79199L122.926 38.0869Z" fill="#EAF4FF" fill-opacity="0.8" stroke="#5DA9FF" stroke-width="2"/>
</svg>
