<svg width="709" height="500" viewBox="0 0 709 500" fill="none" xmlns="http://www.w3.org/2000/svg">
<path d="M114.5 271L145.425 354.575L229 385.5L145.425 416.425L114.5 500L83.5746 416.425L0 385.5L83.5746 354.575L114.5 271Z" fill="#1B7BE8"/>
<rect x="149.5" y="14.5" width="329" height="223" stroke="#EAF4FF" stroke-width="3"/>
<rect x="136" width="25" height="25" fill="#E3E8F5"/>
<rect x="136" y="226" width="25" height="25" fill="#E3E8F5"/>
<rect x="468" width="25" height="25" fill="#E3E8F5"/>
<path d="M528 67L566.593 129.223L634.389 101.568L629.038 174.591L700.141 192.068L652.89 248L700.141 303.932L629.038 321.409L634.389 394.432L566.593 366.777L528 429L489.407 366.777L421.611 394.432L426.962 321.409L355.859 303.932L403.11 248L355.859 192.068L426.962 174.591L421.611 101.568L489.407 129.223L528 67Z" fill="#5DA9FF"/>
</svg>
