<svg width="325" height="555" viewBox="0 0 325 555" fill="none" xmlns="http://www.w3.org/2000/svg">
<rect x="108.5" y="0.5" width="216" height="318" stroke="black"/>
<rect x="0.5" y="220.5" width="216" height="334" stroke="black"/>
<line x1="176.254" y1="191.5" x2="325" y2="191.5" stroke="black"/>
<line x1="107.994" y1="60.5" x2="256.74" y2="60.5" stroke="black"/>
<line x1="107.994" y1="60.5" x2="256.74" y2="60.5" stroke="black"/>
<line x1="0.019043" y1="356.5" x2="148.765" y2="356.5" stroke="black"/>
<line x1="68.019" y1="465.5" x2="216.765" y2="465.5" stroke="black"/>
<path d="M192.428 185V173.364H199.405V174.614H193.837V178.545H198.883V179.795H193.837V185H192.428ZM201.803 185V173.364H208.825V174.614H203.212V178.545H208.462V179.795H203.212V183.75H208.916V185H201.803ZM217.606 169.614V188.75H216.47V169.614H217.606ZM234.763 173.364V185H233.399L227.058 175.864H226.945V185H225.536V173.364H226.899L233.263 182.523H233.377V173.364H234.763ZM238.044 185H236.567L240.839 173.364H242.294L246.567 185H245.089L241.612 175.205H241.521L238.044 185ZM238.589 180.455H244.544V181.705H238.589V180.455ZM248.363 173.364H250.045L253.999 183.023H254.136L258.09 173.364H259.772V185H258.454V176.159H258.34L254.704 185H253.431L249.795 176.159H249.681V185H248.363V173.364ZM275.02 177C274.895 176.617 274.73 176.275 274.526 175.972C274.325 175.665 274.084 175.403 273.804 175.188C273.528 174.972 273.213 174.807 272.861 174.693C272.509 174.58 272.122 174.523 271.702 174.523C271.012 174.523 270.385 174.701 269.821 175.057C269.257 175.413 268.808 175.938 268.474 176.631C268.141 177.324 267.974 178.174 267.974 179.182C267.974 180.189 268.143 181.04 268.48 181.733C268.817 182.426 269.274 182.951 269.849 183.307C270.425 183.663 271.073 183.841 271.793 183.841C272.459 183.841 273.046 183.699 273.554 183.415C274.065 183.127 274.463 182.722 274.747 182.199C275.035 181.672 275.179 181.053 275.179 180.341L275.611 180.432H272.111V179.182H276.543V180.432C276.543 181.39 276.338 182.223 275.929 182.932C275.524 183.64 274.963 184.189 274.247 184.58C273.535 184.966 272.717 185.159 271.793 185.159C270.762 185.159 269.857 184.917 269.077 184.432C268.3 183.947 267.694 183.258 267.259 182.364C266.827 181.47 266.611 180.409 266.611 179.182C266.611 178.261 266.734 177.434 266.98 176.699C267.23 175.96 267.582 175.331 268.037 174.812C268.492 174.294 269.029 173.896 269.651 173.619C270.272 173.343 270.956 173.205 271.702 173.205C272.315 173.205 272.887 173.297 273.418 173.483C273.952 173.665 274.427 173.924 274.844 174.261C275.264 174.595 275.615 174.994 275.895 175.46C276.175 175.922 276.368 176.436 276.474 177H275.02ZM280.349 173.364V185H278.94V173.364H280.349ZM283.158 185V173.364H287.09C287.999 173.364 288.746 173.519 289.329 173.83C289.912 174.136 290.344 174.559 290.624 175.097C290.905 175.634 291.045 176.246 291.045 176.932C291.045 177.617 290.905 178.225 290.624 178.756C290.344 179.286 289.914 179.703 289.335 180.006C288.755 180.305 288.014 180.455 287.113 180.455H283.931V179.182H287.067C287.689 179.182 288.189 179.091 288.567 178.909C288.95 178.727 289.227 178.47 289.397 178.136C289.571 177.799 289.658 177.398 289.658 176.932C289.658 176.466 289.571 176.059 289.397 175.71C289.223 175.362 288.944 175.093 288.562 174.903C288.179 174.71 287.674 174.614 287.045 174.614H284.567V185H283.158ZM288.636 179.773L291.499 185H289.863L287.045 179.773H288.636ZM294.786 173.364V185H293.377V173.364H294.786ZM297.595 173.364H299.277L303.231 183.023H303.368L307.322 173.364H309.004V185H307.686V176.159H307.572L303.936 185H302.663L299.027 176.159H298.913V185H297.595V173.364Z" fill="black"/>
<path d="M19.4281 350V338.364H23.4963C24.3069 338.364 24.9755 338.504 25.502 338.784C26.0285 339.061 26.4206 339.434 26.6781 339.903C26.9357 340.369 27.0645 340.886 27.0645 341.455C27.0645 341.955 26.9755 342.367 26.7975 342.693C26.6232 343.019 26.3921 343.277 26.1043 343.466C25.8202 343.655 25.5115 343.795 25.1781 343.886V344C25.5342 344.023 25.8921 344.148 26.252 344.375C26.6118 344.602 26.913 344.928 27.1554 345.352C27.3978 345.777 27.519 346.295 27.519 346.909C27.519 347.492 27.3865 348.017 27.1213 348.483C26.8562 348.949 26.4376 349.318 25.8656 349.591C25.2937 349.864 24.5493 350 23.6327 350H19.4281ZM20.8372 348.75H23.6327C24.5531 348.75 25.2065 348.572 25.5929 348.216C25.9831 347.856 26.1781 347.42 26.1781 346.909C26.1781 346.515 26.0778 346.152 25.877 345.818C25.6762 345.481 25.3903 345.212 25.019 345.011C24.6478 344.807 24.2084 344.705 23.7009 344.705H20.8372V348.75ZM20.8372 343.477H23.4509C23.8751 343.477 24.2577 343.394 24.5986 343.227C24.9433 343.061 25.216 342.826 25.4168 342.523C25.6213 342.22 25.7236 341.864 25.7236 341.455C25.7236 340.943 25.5456 340.509 25.1895 340.153C24.8334 339.794 24.269 339.614 23.4963 339.614H20.8372V343.477ZM29.8184 350V338.364H36.8411V339.614H31.2275V343.545H36.4775V344.795H31.2275V348.75H36.932V350H29.8184ZM45.6216 334.614V353.75H44.4852V334.614H45.6216ZM53.5513 350V338.364H54.9603V344.136H55.0967L60.324 338.364H62.1649L57.2785 343.614L62.1649 350H60.4603L56.4149 344.591L54.9603 346.227V350H53.5513ZM65.3818 338.364V350H63.9728V338.364H65.3818ZM68.1911 338.364H69.873L73.8275 348.023H73.9639L77.9184 338.364H79.6002V350H78.282V341.159H78.1684L74.532 350H73.2593L69.623 341.159H69.5093V350H68.1911V338.364ZM86.2571 339.614V338.364H94.9844V339.614H91.3253V350H89.9162V339.614H86.2571ZM96.261 350H94.7838L99.0565 338.364H100.511L104.784 350H103.306L99.8292 340.205H99.7383L96.261 350ZM96.8065 345.455H102.761V346.705H96.8065V345.455ZM106.58 350V338.364H113.603V339.614H107.989V343.545H113.239V344.795H107.989V348.75H113.694V350H106.58ZM117.536 338.364V350H116.127V338.364H117.536ZM120.345 350V338.364H121.754V344.136H121.891L127.118 338.364H128.959L124.072 343.614L128.959 350H127.254L123.209 344.591L121.754 346.227V350H120.345Z" fill="black"/>
<path d="M82.4281 459V447.364H86.4963C87.3069 447.364 87.9755 447.504 88.502 447.784C89.0285 448.061 89.4206 448.434 89.6781 448.903C89.9357 449.369 90.0645 449.886 90.0645 450.455C90.0645 450.955 89.9755 451.367 89.7975 451.693C89.6232 452.019 89.3921 452.277 89.1043 452.466C88.8202 452.655 88.5115 452.795 88.1781 452.886V453C88.5342 453.023 88.8921 453.148 89.252 453.375C89.6118 453.602 89.913 453.928 90.1554 454.352C90.3978 454.777 90.519 455.295 90.519 455.909C90.519 456.492 90.3865 457.017 90.1213 457.483C89.8562 457.949 89.4376 458.318 88.8656 458.591C88.2937 458.864 87.5493 459 86.6327 459H82.4281ZM83.8372 457.75H86.6327C87.5531 457.75 88.2065 457.572 88.5929 457.216C88.9831 456.856 89.1781 456.42 89.1781 455.909C89.1781 455.515 89.0778 455.152 88.877 454.818C88.6762 454.481 88.3903 454.212 88.019 454.011C87.6478 453.807 87.2084 453.705 86.7009 453.705H83.8372V457.75ZM83.8372 452.477H86.4509C86.8751 452.477 87.2577 452.394 87.5986 452.227C87.9433 452.061 88.216 451.826 88.4168 451.523C88.6213 451.22 88.7236 450.864 88.7236 450.455C88.7236 449.943 88.5456 449.509 88.1895 449.153C87.8334 448.794 87.269 448.614 86.4963 448.614H83.8372V452.477ZM92.8184 459V447.364H99.8411V448.614H94.2275V452.545H99.4775V453.795H94.2275V457.75H99.932V459H92.8184ZM108.622 443.614V462.75H107.485V443.614H108.622ZM126.369 453.182C126.369 454.409 126.148 455.47 125.705 456.364C125.261 457.258 124.654 457.947 123.881 458.432C123.108 458.917 122.225 459.159 121.233 459.159C120.241 459.159 119.358 458.917 118.585 458.432C117.813 457.947 117.205 457.258 116.761 456.364C116.318 455.47 116.097 454.409 116.097 453.182C116.097 451.955 116.318 450.894 116.761 450C117.205 449.106 117.813 448.417 118.585 447.932C119.358 447.447 120.241 447.205 121.233 447.205C122.225 447.205 123.108 447.447 123.881 447.932C124.654 448.417 125.261 449.106 125.705 450C126.148 450.894 126.369 451.955 126.369 453.182ZM125.006 453.182C125.006 452.174 124.837 451.324 124.5 450.631C124.167 449.938 123.714 449.413 123.142 449.057C122.574 448.701 121.938 448.523 121.233 448.523C120.529 448.523 119.89 448.701 119.318 449.057C118.75 449.413 118.297 449.938 117.96 450.631C117.627 451.324 117.46 452.174 117.46 453.182C117.46 454.189 117.627 455.04 117.96 455.733C118.297 456.426 118.75 456.951 119.318 457.307C119.89 457.663 120.529 457.841 121.233 457.841C121.938 457.841 122.574 457.663 123.142 457.307C123.714 456.951 124.167 456.426 124.5 455.733C124.837 455.04 125.006 454.189 125.006 453.182ZM128.723 459V447.364H130.132V452.545H136.336V447.364H137.745V459H136.336V453.795H130.132V459H128.723ZM149.489 447.364H150.898V455.682C150.898 456.424 150.762 457.055 150.489 457.574C150.216 458.093 149.832 458.487 149.336 458.756C148.839 459.025 148.254 459.159 147.58 459.159C146.944 459.159 146.377 459.044 145.881 458.812C145.385 458.578 144.995 458.244 144.711 457.812C144.427 457.381 144.285 456.867 144.285 456.273H145.671C145.671 456.602 145.752 456.89 145.915 457.136C146.082 457.379 146.309 457.568 146.597 457.705C146.885 457.841 147.213 457.909 147.58 457.909C147.985 457.909 148.33 457.824 148.614 457.653C148.898 457.483 149.114 457.233 149.262 456.903C149.413 456.57 149.489 456.163 149.489 455.682V447.364ZM155.115 447.364V459H153.706V447.364H155.115ZM164.288 450.273C164.22 449.697 163.943 449.25 163.458 448.932C162.974 448.614 162.379 448.455 161.674 448.455C161.159 448.455 160.708 448.538 160.322 448.705C159.94 448.871 159.64 449.1 159.424 449.392C159.212 449.684 159.106 450.015 159.106 450.386C159.106 450.697 159.18 450.964 159.328 451.188C159.479 451.407 159.672 451.591 159.907 451.739C160.142 451.883 160.388 452.002 160.646 452.097C160.904 452.187 161.14 452.261 161.356 452.318L162.538 452.636C162.841 452.716 163.178 452.826 163.549 452.966C163.924 453.106 164.282 453.297 164.623 453.54C164.968 453.778 165.252 454.085 165.476 454.46C165.699 454.835 165.811 455.295 165.811 455.841C165.811 456.47 165.646 457.038 165.316 457.545C164.991 458.053 164.513 458.456 163.885 458.756C163.26 459.055 162.5 459.205 161.606 459.205C160.773 459.205 160.051 459.07 159.441 458.801C158.835 458.532 158.358 458.157 158.01 457.676C157.665 457.195 157.47 456.636 157.424 456H158.879C158.917 456.439 159.065 456.803 159.322 457.091C159.583 457.375 159.913 457.587 160.311 457.727C160.712 457.864 161.144 457.932 161.606 457.932C162.144 457.932 162.627 457.845 163.055 457.67C163.483 457.492 163.822 457.246 164.072 456.932C164.322 456.614 164.447 456.242 164.447 455.818C164.447 455.432 164.339 455.117 164.123 454.875C163.907 454.633 163.623 454.436 163.271 454.284C162.919 454.133 162.538 454 162.129 453.886L160.697 453.477C159.788 453.216 159.068 452.843 158.538 452.358C158.008 451.873 157.743 451.239 157.743 450.455C157.743 449.803 157.919 449.235 158.271 448.75C158.627 448.261 159.104 447.883 159.703 447.614C160.305 447.341 160.977 447.205 161.72 447.205C162.47 447.205 163.137 447.339 163.72 447.608C164.303 447.873 164.765 448.237 165.106 448.699C165.451 449.161 165.633 449.686 165.652 450.273H164.288ZM177.93 453.182C177.93 454.409 177.708 455.47 177.265 456.364C176.822 457.258 176.214 457.947 175.441 458.432C174.668 458.917 173.786 459.159 172.793 459.159C171.801 459.159 170.918 458.917 170.146 458.432C169.373 457.947 168.765 457.258 168.322 456.364C167.879 455.47 167.657 454.409 167.657 453.182C167.657 451.955 167.879 450.894 168.322 450C168.765 449.106 169.373 448.417 170.146 447.932C170.918 447.447 171.801 447.205 172.793 447.205C173.786 447.205 174.668 447.447 175.441 447.932C176.214 448.417 176.822 449.106 177.265 450C177.708 450.894 177.93 451.955 177.93 453.182ZM176.566 453.182C176.566 452.174 176.397 451.324 176.06 450.631C175.727 449.938 175.274 449.413 174.702 449.057C174.134 448.701 173.498 448.523 172.793 448.523C172.089 448.523 171.451 448.701 170.879 449.057C170.31 449.413 169.858 449.938 169.521 450.631C169.187 451.324 169.021 452.174 169.021 453.182C169.021 454.189 169.187 455.04 169.521 455.733C169.858 456.426 170.31 456.951 170.879 457.307C171.451 457.663 172.089 457.841 172.793 457.841C173.498 457.841 174.134 457.663 174.702 457.307C175.274 456.951 175.727 456.426 176.06 455.733C176.397 455.04 176.566 454.189 176.566 453.182ZM189.51 447.364V459H188.147L181.806 449.864H181.692V459H180.283V447.364H181.647L188.01 456.523H188.124V447.364H189.51ZM200.268 451C200.143 450.617 199.979 450.275 199.774 449.972C199.573 449.665 199.333 449.403 199.053 449.188C198.776 448.972 198.462 448.807 198.109 448.693C197.757 448.58 197.371 448.523 196.95 448.523C196.261 448.523 195.634 448.701 195.07 449.057C194.505 449.413 194.056 449.938 193.723 450.631C193.39 451.324 193.223 452.174 193.223 453.182C193.223 454.189 193.392 455.04 193.729 455.733C194.066 456.426 194.522 456.951 195.098 457.307C195.674 457.663 196.321 457.841 197.041 457.841C197.708 457.841 198.295 457.699 198.803 457.415C199.314 457.127 199.712 456.722 199.996 456.199C200.284 455.672 200.428 455.053 200.428 454.341L200.859 454.432H197.359V453.182H201.791V454.432C201.791 455.39 201.587 456.223 201.178 456.932C200.772 457.64 200.212 458.189 199.496 458.58C198.784 458.966 197.965 459.159 197.041 459.159C196.011 459.159 195.106 458.917 194.325 458.432C193.549 457.947 192.943 457.258 192.507 456.364C192.075 455.47 191.859 454.409 191.859 453.182C191.859 452.261 191.982 451.434 192.229 450.699C192.479 449.96 192.831 449.331 193.285 448.812C193.74 448.294 194.278 447.896 194.899 447.619C195.52 447.343 196.204 447.205 196.95 447.205C197.564 447.205 198.136 447.297 198.666 447.483C199.2 447.665 199.676 447.924 200.092 448.261C200.513 448.595 200.863 448.994 201.143 449.46C201.424 449.922 201.617 450.436 201.723 451H200.268Z" fill="black"/>
<path d="M119.428 54V42.3636H126.405V43.6136H120.837V47.5455H125.883V48.7955H120.837V54H119.428ZM128.803 54V42.3636H135.825V43.6136H130.212V47.5455H135.462V48.7955H130.212V52.75H135.916V54H128.803ZM144.606 38.6136V57.75H143.47V38.6136H144.606ZM152.536 54V42.3636H153.945V48.1364H154.081L159.308 42.3636H161.149L156.263 47.6136L161.149 54H159.445L155.399 48.5909L153.945 50.2273V54H152.536ZM164.366 42.3636V54H162.957V42.3636H164.366ZM167.176 42.3636H168.857L172.812 52.0227H172.948L176.903 42.3636H178.585V54H177.266V45.1591H177.153L173.516 54H172.244L168.607 45.1591H168.494V54H167.176V42.3636ZM185.878 42.3636H187.56L191.514 52.0227H191.651L195.605 42.3636H197.287V54H195.969V45.1591H195.855L192.219 54H190.946L187.31 45.1591H187.196V54H185.878V42.3636ZM201.505 42.3636V54H200.096V42.3636H201.505ZM213.542 42.3636V54H212.178L205.837 44.8636H205.724V54H204.315V42.3636H205.678L212.042 51.5227H212.156V42.3636H213.542ZM222.709 45.2727C222.641 44.697 222.364 44.25 221.88 43.9318C221.395 43.6136 220.8 43.4545 220.096 43.4545C219.58 43.4545 219.13 43.5379 218.743 43.7045C218.361 43.8712 218.061 44.1004 217.846 44.392C217.633 44.6837 217.527 45.0152 217.527 45.3864C217.527 45.697 217.601 45.964 217.749 46.1875C217.9 46.4072 218.094 46.5909 218.328 46.7386C218.563 46.8826 218.81 47.0019 219.067 47.0966C219.325 47.1875 219.561 47.2614 219.777 47.3182L220.959 47.6364C221.262 47.7159 221.599 47.8258 221.971 47.9659C222.346 48.1061 222.703 48.2973 223.044 48.5398C223.389 48.7784 223.673 49.0852 223.897 49.4602C224.12 49.8352 224.232 50.2955 224.232 50.8409C224.232 51.4697 224.067 52.0379 223.738 52.5455C223.412 53.053 222.935 53.4564 222.306 53.7557C221.681 54.0549 220.921 54.2045 220.027 54.2045C219.194 54.2045 218.472 54.0701 217.863 53.8011C217.256 53.5322 216.779 53.1572 216.431 52.6761C216.086 52.1951 215.891 51.6364 215.846 51H217.3C217.338 51.4394 217.486 51.803 217.743 52.0909C218.005 52.375 218.334 52.5871 218.732 52.7273C219.133 52.8636 219.565 52.9318 220.027 52.9318C220.565 52.9318 221.048 52.8447 221.476 52.6705C221.904 52.4924 222.243 52.2462 222.493 51.9318C222.743 51.6136 222.868 51.2424 222.868 50.8182C222.868 50.4318 222.76 50.1174 222.544 49.875C222.328 49.6326 222.044 49.4356 221.692 49.2841C221.34 49.1326 220.959 49 220.55 48.8864L219.118 48.4773C218.209 48.2159 217.489 47.8428 216.959 47.358C216.429 46.8731 216.164 46.2386 216.164 45.4545C216.164 44.803 216.34 44.2348 216.692 43.75C217.048 43.2614 217.525 42.8826 218.124 42.6136C218.726 42.3409 219.399 42.2045 220.141 42.2045C220.891 42.2045 221.558 42.339 222.141 42.608C222.724 42.8731 223.186 43.2367 223.527 43.6989C223.872 44.161 224.054 44.6856 224.073 45.2727H222.709ZM226.533 54V42.3636H233.555V43.6136H227.942V47.5455H233.192V48.7955H227.942V52.75H233.646V54H226.533ZM245.897 48.1818C245.897 49.4091 245.676 50.4697 245.233 51.3636C244.789 52.2576 244.181 52.947 243.409 53.4318C242.636 53.9167 241.753 54.1591 240.761 54.1591C239.769 54.1591 238.886 53.9167 238.113 53.4318C237.34 52.947 236.733 52.2576 236.289 51.3636C235.846 50.4697 235.625 49.4091 235.625 48.1818C235.625 46.9545 235.846 45.8939 236.289 45C236.733 44.1061 237.34 43.4167 238.113 42.9318C238.886 42.447 239.769 42.2045 240.761 42.2045C241.753 42.2045 242.636 42.447 243.409 42.9318C244.181 43.4167 244.789 44.1061 245.233 45C245.676 45.8939 245.897 46.9545 245.897 48.1818ZM244.534 48.1818C244.534 47.1742 244.365 46.3239 244.028 45.6307C243.695 44.9375 243.242 44.4129 242.67 44.0568C242.102 43.7008 241.465 43.5227 240.761 43.5227C240.056 43.5227 239.418 43.7008 238.846 44.0568C238.278 44.4129 237.825 44.9375 237.488 45.6307C237.155 46.3239 236.988 47.1742 236.988 48.1818C236.988 49.1894 237.155 50.0398 237.488 50.733C237.825 51.4261 238.278 51.9508 238.846 52.3068C239.418 52.6629 240.056 52.8409 240.761 52.8409C241.465 52.8409 242.102 52.6629 242.67 52.3068C243.242 51.9508 243.695 51.4261 244.028 50.733C244.365 50.0398 244.534 49.1894 244.534 48.1818Z" fill="black"/>
<path d="M131.9 86.3636C131.843 85.7969 131.593 85.3461 131.149 85.0114C130.705 84.6766 130.146 84.5092 129.474 84.5092C129 84.5092 128.582 84.5904 128.221 84.7528C127.863 84.9152 127.581 85.1406 127.376 85.429C127.173 85.714 127.072 86.0388 127.072 86.4034C127.072 86.6719 127.13 86.9072 127.246 87.1094C127.362 87.3116 127.518 87.4856 127.714 87.6314C127.913 87.7739 128.131 87.8965 128.37 87.9993C128.612 88.102 128.855 88.1882 129.101 88.2578L130.175 88.5661C130.499 88.6555 130.824 88.7699 131.149 88.9091C131.474 89.0483 131.77 89.224 132.039 89.4361C132.311 89.6449 132.528 89.9018 132.69 90.2067C132.856 90.5083 132.939 90.8712 132.939 91.2955C132.939 91.839 132.798 92.3279 132.516 92.7621C132.234 93.1963 131.83 93.541 131.303 93.7962C130.776 94.0481 130.145 94.174 129.409 94.174C128.716 94.174 128.115 94.0597 127.604 93.831C127.094 93.599 126.693 93.2791 126.401 92.8714C126.109 92.4638 125.945 91.9915 125.909 91.4545H126.864C126.897 91.8556 127.029 92.1953 127.261 92.4737C127.493 92.7521 127.795 92.9643 128.166 93.1101C128.537 93.2526 128.952 93.3239 129.409 93.3239C129.916 93.3239 130.367 93.2393 130.761 93.0703C131.159 92.898 131.471 92.6593 131.696 92.3544C131.925 92.0462 132.039 91.6882 132.039 91.2805C132.039 90.9358 131.949 90.6475 131.77 90.4155C131.591 90.1802 131.341 89.983 131.02 89.8239C130.702 89.6648 130.332 89.5239 129.911 89.4013L128.693 89.0433C127.894 88.8047 127.274 88.4749 126.834 88.054C126.393 87.633 126.172 87.0961 126.172 86.4432C126.172 85.8963 126.318 85.4157 126.61 85.0014C126.905 84.5838 127.303 84.259 127.803 84.027C128.307 83.7917 128.872 83.674 129.498 83.674C130.131 83.674 130.692 83.79 131.179 84.022C131.666 84.254 132.052 84.5739 132.337 84.9815C132.626 85.3859 132.78 85.8466 132.8 86.3636H131.9ZM136.092 83.8182V94H135.162V83.8182H136.092ZM145.829 87C145.737 86.6619 145.601 86.3454 145.422 86.0504C145.243 85.7521 145.021 85.492 144.756 85.2699C144.494 85.0445 144.19 84.8688 143.846 84.7429C143.504 84.617 143.123 84.554 142.702 84.554C142.039 84.554 141.446 84.7263 140.923 85.071C140.399 85.4157 139.985 85.9129 139.68 86.5625C139.378 87.2121 139.227 87.9943 139.227 88.9091C139.227 89.8205 139.38 90.6011 139.685 91.2507C139.99 91.9003 140.407 92.3991 140.937 92.7472C141.471 93.0919 142.081 93.2642 142.767 93.2642C143.393 93.2642 143.947 93.125 144.427 92.8466C144.908 92.5682 145.283 92.1705 145.551 91.6534C145.823 91.1364 145.955 90.5215 145.949 89.8089L146.247 89.9034H142.986V89.0682H146.854V89.9034C146.854 90.7718 146.678 91.5225 146.327 92.1555C145.975 92.7886 145.493 93.2775 144.88 93.6222C144.267 93.9669 143.562 94.1392 142.767 94.1392C141.879 94.1392 141.101 93.9254 140.435 93.4979C139.769 93.067 139.25 92.4605 138.879 91.6783C138.511 90.8928 138.327 89.9697 138.327 88.9091C138.327 88.1103 138.433 87.3894 138.646 86.7464C138.858 86.1035 139.158 85.5533 139.545 85.0959C139.936 84.6385 140.399 84.2888 140.932 84.0469C141.466 83.8016 142.056 83.679 142.702 83.679C143.259 83.679 143.768 83.7668 144.229 83.9425C144.693 84.1181 145.1 84.3601 145.452 84.6683C145.806 84.9732 146.096 85.3262 146.322 85.7273C146.55 86.125 146.704 86.5492 146.784 87H145.829ZM157.077 83.8182V94H156.173L150.157 85.4737H150.077V94H149.148V83.8182H150.048L156.083 92.3544H156.163V83.8182H157.077ZM170.48 83.8182H171.41V90.5597C171.41 91.2524 171.247 91.8722 170.923 92.419C170.598 92.9626 170.145 93.3918 169.565 93.7067C168.989 94.0182 168.317 94.174 167.552 94.174C166.79 94.174 166.118 94.0166 165.538 93.7017C164.958 93.3868 164.506 92.9576 164.181 92.4141C163.856 91.8705 163.694 91.2524 163.694 90.5597V83.8182H164.624V90.495C164.624 91.0353 164.745 91.5175 164.987 91.9418C165.228 92.3627 165.568 92.6941 166.006 92.9361C166.446 93.178 166.962 93.299 167.552 93.299C168.142 93.299 168.657 93.178 169.098 92.9361C169.539 92.6941 169.879 92.3627 170.117 91.9418C170.359 91.5175 170.48 91.0353 170.48 90.495V83.8182ZM174.098 94V83.8182H177.384C178.107 83.8182 178.71 83.9574 179.194 84.2358C179.681 84.5109 180.047 84.8854 180.292 85.3594C180.541 85.8333 180.665 86.367 180.665 86.9602C180.665 87.5535 180.543 88.0888 180.297 88.5661C180.052 89.04 179.688 89.4162 179.204 89.6946C178.72 89.9697 178.118 90.1072 177.399 90.1072H174.814V89.272H177.374C177.908 89.272 178.35 89.1726 178.702 88.9737C179.053 88.7715 179.315 88.4964 179.487 88.1484C179.663 87.8004 179.751 87.4044 179.751 86.9602C179.751 86.5161 179.663 86.12 179.487 85.772C179.315 85.424 179.051 85.1506 178.697 84.9517C178.345 84.7528 177.899 84.6534 177.359 84.6534H175.028V94H174.098ZM126.386 108.818L129.568 117.792H129.658L132.839 108.818H133.814L130.11 119H129.116L125.412 108.818H126.386ZM143.414 113.909C143.414 114.97 143.225 115.893 142.847 116.678C142.469 117.46 141.949 118.067 141.286 118.498C140.626 118.925 139.867 119.139 139.009 119.139C138.15 119.139 137.39 118.925 136.727 118.498C136.067 118.067 135.549 117.46 135.171 116.678C134.796 115.893 134.609 114.97 134.609 113.909C134.609 112.848 134.796 111.927 135.171 111.145C135.549 110.359 136.069 109.753 136.732 109.325C137.395 108.894 138.154 108.679 139.009 108.679C139.867 108.679 140.626 108.894 141.286 109.325C141.949 109.753 142.469 110.359 142.847 111.145C143.225 111.927 143.414 112.848 143.414 113.909ZM142.509 113.909C142.509 112.998 142.356 112.217 142.051 111.567C141.746 110.915 141.331 110.416 140.804 110.071C140.277 109.726 139.678 109.554 139.009 109.554C138.343 109.554 137.746 109.726 137.219 110.071C136.692 110.416 136.274 110.913 135.966 111.562C135.661 112.212 135.509 112.994 135.509 113.909C135.509 114.821 135.661 115.601 135.966 116.251C136.271 116.9 136.687 117.399 137.214 117.747C137.741 118.092 138.339 118.264 139.009 118.264C139.678 118.264 140.277 118.092 140.804 117.747C141.334 117.402 141.751 116.905 142.056 116.256C142.361 115.603 142.512 114.821 142.509 113.909ZM144.608 109.653V108.818H151.991V109.653H148.764V119H147.834V109.653H144.608ZM154.999 108.818V119H154.07V108.818H154.999ZM165.622 108.818V119H164.717L158.702 110.474H158.622V119H157.692V108.818H158.592L164.628 117.354H164.707V108.818H165.622ZM175.36 112C175.267 111.662 175.131 111.345 174.952 111.05C174.773 110.752 174.551 110.492 174.286 110.27C174.024 110.045 173.721 109.869 173.376 109.743C173.035 109.617 172.654 109.554 172.233 109.554C171.57 109.554 170.976 109.726 170.453 110.071C169.929 110.416 169.515 110.913 169.21 111.562C168.908 112.212 168.757 112.994 168.757 113.909C168.757 114.821 168.91 115.601 169.215 116.251C169.52 116.9 169.937 117.399 170.468 117.747C171.001 118.092 171.611 118.264 172.297 118.264C172.924 118.264 173.477 118.125 173.958 117.847C174.438 117.568 174.813 117.17 175.081 116.653C175.353 116.136 175.486 115.522 175.479 114.809L175.777 114.903H172.516V114.068H176.384V114.903C176.384 115.772 176.208 116.522 175.857 117.156C175.506 117.789 175.023 118.277 174.41 118.622C173.797 118.967 173.093 119.139 172.297 119.139C171.409 119.139 170.632 118.925 169.966 118.498C169.299 118.067 168.781 117.46 168.409 116.678C168.042 115.893 167.858 114.97 167.858 113.909C167.858 113.11 167.964 112.389 168.176 111.746C168.388 111.103 168.688 110.553 169.076 110.096C169.467 109.638 169.929 109.289 170.463 109.047C170.996 108.802 171.586 108.679 172.233 108.679C172.789 108.679 173.298 108.767 173.759 108.942C174.223 109.118 174.631 109.36 174.982 109.668C175.337 109.973 175.627 110.326 175.852 110.727C176.081 111.125 176.235 111.549 176.314 112H175.36ZM126.371 133.818H127.445L131.139 142.688H131.229L134.922 133.818H135.996V144H135.121V135.782H135.042L131.606 144H130.761L127.326 135.782H127.246V144H126.371V133.818ZM138.689 144V133.818H144.596V134.653H139.619V138.487H144.282V139.322H139.619V143.165H144.695V144H138.689ZM146.988 133.818H148.062L151.756 142.688H151.845L155.539 133.818H156.613V144H155.738V135.782H155.658L152.223 144H151.378L147.942 135.782H147.863V144H146.988V133.818ZM159.306 144V133.818H162.741C163.404 133.818 163.956 133.934 164.397 134.166C164.841 134.398 165.174 134.715 165.396 135.116C165.618 135.517 165.729 135.973 165.729 136.483C165.729 136.907 165.658 137.27 165.515 137.572C165.373 137.873 165.179 138.117 164.934 138.303C164.688 138.488 164.415 138.622 164.113 138.705V138.785C164.442 138.808 164.76 138.924 165.068 139.133C165.376 139.338 165.63 139.627 165.829 139.998C166.027 140.369 166.127 140.813 166.127 141.33C166.127 141.844 166.013 142.303 165.784 142.707C165.555 143.108 165.204 143.425 164.73 143.657C164.259 143.886 163.659 144 162.93 144H159.306ZM160.236 143.165H162.93C163.716 143.165 164.296 142.991 164.67 142.643C165.048 142.295 165.237 141.857 165.237 141.33C165.237 140.942 165.143 140.591 164.954 140.276C164.768 139.958 164.505 139.706 164.163 139.521C163.825 139.335 163.427 139.242 162.97 139.242H160.236V143.165ZM160.236 138.417H162.826C163.227 138.417 163.578 138.334 163.88 138.168C164.181 138.003 164.417 137.774 164.586 137.482C164.755 137.191 164.839 136.857 164.839 136.483C164.839 135.943 164.664 135.504 164.312 135.165C163.961 134.824 163.437 134.653 162.741 134.653H160.236V138.417ZM168.356 144V133.818H174.263V134.653H169.286V138.487H173.949V139.322H169.286V143.165H174.362V144H168.356ZM176.655 144V133.818H179.941C180.664 133.818 181.267 133.949 181.751 134.211C182.238 134.469 182.604 134.829 182.849 135.29C183.098 135.747 183.222 136.272 183.222 136.866C183.222 137.459 183.098 137.983 182.849 138.437C182.604 138.891 182.24 139.246 181.756 139.501C181.272 139.756 180.672 139.884 179.956 139.884H177.157V139.033H179.931C180.461 139.033 180.902 138.946 181.254 138.77C181.608 138.594 181.872 138.344 182.044 138.019C182.22 137.694 182.308 137.31 182.308 136.866C182.308 136.422 182.22 136.034 182.044 135.702C181.868 135.368 181.603 135.109 181.249 134.927C180.897 134.745 180.453 134.653 179.916 134.653H177.585V144H176.655ZM181.144 139.406L183.65 144H182.576L180.095 139.406H181.144ZM191.001 136.364C190.945 135.797 190.695 135.346 190.251 135.011C189.806 134.677 189.248 134.509 188.575 134.509C188.101 134.509 187.684 134.59 187.322 134.753C186.964 134.915 186.683 135.141 186.477 135.429C186.275 135.714 186.174 136.039 186.174 136.403C186.174 136.672 186.232 136.907 186.348 137.109C186.464 137.312 186.62 137.486 186.815 137.631C187.014 137.774 187.233 137.897 187.471 137.999C187.713 138.102 187.957 138.188 188.202 138.258L189.276 138.566C189.601 138.656 189.926 138.77 190.251 138.909C190.575 139.048 190.872 139.224 191.14 139.436C191.412 139.645 191.629 139.902 191.792 140.207C191.957 140.508 192.04 140.871 192.04 141.295C192.04 141.839 191.899 142.328 191.618 142.762C191.336 143.196 190.932 143.541 190.405 143.796C189.878 144.048 189.246 144.174 188.511 144.174C187.818 144.174 187.216 144.06 186.706 143.831C186.195 143.599 185.794 143.279 185.503 142.871C185.211 142.464 185.047 141.991 185.011 141.455H185.965C185.998 141.856 186.131 142.195 186.363 142.474C186.595 142.752 186.896 142.964 187.268 143.11C187.639 143.253 188.053 143.324 188.511 143.324C189.018 143.324 189.468 143.239 189.863 143.07C190.261 142.898 190.572 142.659 190.797 142.354C191.026 142.046 191.14 141.688 191.14 141.281C191.14 140.936 191.051 140.647 190.872 140.415C190.693 140.18 190.443 139.983 190.121 139.824C189.803 139.665 189.434 139.524 189.013 139.401L187.795 139.043C186.996 138.805 186.376 138.475 185.935 138.054C185.494 137.633 185.274 137.096 185.274 136.443C185.274 135.896 185.42 135.416 185.711 135.001C186.006 134.584 186.404 134.259 186.905 134.027C187.408 133.792 187.974 133.674 188.6 133.674C189.233 133.674 189.793 133.79 190.28 134.022C190.768 134.254 191.154 134.574 191.439 134.982C191.727 135.386 191.881 135.847 191.901 136.364H191.001Z" fill="black"/>
<path d="M15.7548 375.653V374.818H23.1377V375.653H19.9111V385H18.9814V375.653H15.7548ZM24.0422 385H23.0677L26.7716 374.818H27.7659L31.4697 385H30.4953L27.3035 376.026H27.2339L24.0422 385ZM24.7431 381.097H29.7943V381.933H24.7431V381.097ZM33.2007 385V374.818H36.6361C37.299 374.818 37.8508 374.934 38.2916 375.166C38.7358 375.398 39.0689 375.715 39.2909 376.116C39.513 376.517 39.624 376.973 39.624 377.483C39.624 377.907 39.5528 378.27 39.4103 378.572C39.2677 378.873 39.0738 379.117 38.8286 379.303C38.5833 379.488 38.3099 379.622 38.0083 379.705V379.785C38.3364 379.808 38.6546 379.924 38.9628 380.133C39.2711 380.338 39.5246 380.627 39.7235 380.998C39.9223 381.369 40.0218 381.813 40.0218 382.33C40.0218 382.844 39.9074 383.303 39.6787 383.707C39.45 384.108 39.0987 384.425 38.6247 384.657C38.1541 384.886 37.5542 385 36.825 385H33.2007ZM34.1304 384.165H36.825C37.6105 384.165 38.1906 383.991 38.5651 383.643C38.9429 383.295 39.1318 382.857 39.1318 382.33C39.1318 381.942 39.0374 381.591 38.8485 381.276C38.6629 380.958 38.3994 380.706 38.058 380.521C37.7199 380.335 37.3222 380.242 36.8648 380.242H34.1304V384.165ZM34.1304 379.417H36.7206C37.1217 379.417 37.473 379.334 37.7746 379.168C38.0762 379.003 38.3115 378.774 38.4806 378.482C38.6496 378.191 38.7341 377.857 38.7341 377.483C38.7341 376.943 38.5585 376.504 38.2071 376.165C37.8558 375.824 37.3321 375.653 36.6361 375.653H34.1304V379.417ZM42.2512 385V374.818H43.1809V384.165H48.0332V385H42.2512ZM50.1122 385V374.818H56.0184V375.653H51.0419V379.487H55.7052V380.322H51.0419V384.165H56.1179V385H50.1122ZM65.3171 385H62.3342V374.818H65.4961C66.4672 374.818 67.2975 375.02 67.9869 375.425C68.6796 375.829 69.2099 376.409 69.5778 377.165C69.9457 377.92 70.1296 378.827 70.1296 379.884C70.1296 380.951 69.9407 381.868 69.5629 382.634C69.1884 383.396 68.6415 383.981 67.9223 384.388C67.2064 384.796 66.338 385 65.3171 385ZM63.2639 384.165H65.2625C66.1375 384.165 66.8699 383.992 67.4599 383.648C68.0499 383.303 68.4923 382.811 68.7873 382.171C69.0823 381.531 69.2298 380.769 69.2298 379.884C69.2265 379.006 69.0806 378.25 68.7923 377.617C68.5072 376.984 68.083 376.499 67.5196 376.161C66.9594 375.822 66.2667 375.653 65.4414 375.653H63.2639V384.165ZM72.369 385V374.818H78.2753V375.653H73.2987V379.487H77.9621V380.322H73.2987V384.165H78.3747V385H72.369ZM86.1959 377.364C86.1396 376.797 85.8893 376.346 85.4452 376.011C85.0011 375.677 84.4426 375.509 83.7698 375.509C83.2958 375.509 82.8782 375.59 82.517 375.753C82.159 375.915 81.8773 376.141 81.6718 376.429C81.4696 376.714 81.3685 377.039 81.3685 377.403C81.3685 377.672 81.4265 377.907 81.5425 378.109C81.6585 378.312 81.8143 378.486 82.0098 378.631C82.2087 378.774 82.4275 378.897 82.6661 378.999C82.908 379.102 83.1517 379.188 83.3969 379.258L84.4708 379.566C84.7956 379.656 85.1204 379.77 85.4452 379.909C85.77 380.048 86.0667 380.224 86.3351 380.436C86.6069 380.645 86.824 380.902 86.9864 381.207C87.1521 381.508 87.235 381.871 87.235 382.295C87.235 382.839 87.0941 383.328 86.8124 383.762C86.5307 384.196 86.1263 384.541 85.5993 384.796C85.0723 385.048 84.441 385.174 83.7052 385.174C83.0125 385.174 82.4109 385.06 81.9005 384.831C81.3901 384.599 80.989 384.279 80.6973 383.871C80.4057 383.464 80.2416 382.991 80.2052 382.455H81.1597C81.1929 382.856 81.3254 383.195 81.5574 383.474C81.7894 383.752 82.0911 383.964 82.4623 384.11C82.8335 384.253 83.2478 384.324 83.7052 384.324C84.2123 384.324 84.663 384.239 85.0574 384.07C85.4552 383.898 85.7667 383.659 85.9921 383.354C86.2208 383.046 86.3351 382.688 86.3351 382.281C86.3351 381.936 86.2456 381.647 86.0667 381.415C85.8877 381.18 85.6375 380.983 85.316 380.824C84.9978 380.665 84.6282 380.524 84.2073 380.401L82.9893 380.043C82.1905 379.805 81.5707 379.475 81.1299 379.054C80.6891 378.633 80.4687 378.096 80.4687 377.443C80.4687 376.896 80.6145 376.416 80.9062 376.001C81.2011 375.584 81.5989 375.259 82.0993 375.027C82.6031 374.792 83.1682 374.674 83.7947 374.674C84.4277 374.674 84.9878 374.79 85.475 375.022C85.9623 375.254 86.3484 375.574 86.6334 375.982C86.9218 376.386 87.0759 376.847 87.0958 377.364H86.1959ZM90.3879 374.818V385H89.4582V374.818H90.3879ZM100.126 378C100.033 377.662 99.897 377.345 99.718 377.05C99.539 376.752 99.317 376.492 99.0518 376.27C98.79 376.045 98.4867 375.869 98.142 375.743C97.8006 375.617 97.4195 375.554 96.9985 375.554C96.3357 375.554 95.7424 375.726 95.2187 376.071C94.695 376.416 94.2807 376.913 93.9758 377.562C93.6742 378.212 93.5234 378.994 93.5234 379.909C93.5234 380.821 93.6759 381.601 93.9808 382.251C94.2857 382.9 94.7033 383.399 95.2336 383.747C95.7672 384.092 96.3771 384.264 97.0632 384.264C97.6896 384.264 98.2431 384.125 98.7237 383.847C99.2043 383.568 99.5788 383.17 99.8473 382.653C100.119 382.136 100.252 381.522 100.245 380.809L100.543 380.903H97.2819V380.068H101.15V380.903C101.15 381.772 100.974 382.522 100.623 383.156C100.272 383.789 99.7893 384.277 99.1761 384.622C98.5629 384.967 97.8586 385.139 97.0632 385.139C96.1749 385.139 95.3977 384.925 94.7315 384.498C94.0653 384.067 93.5466 383.46 93.1754 382.678C92.8075 381.893 92.6235 380.97 92.6235 379.909C92.6235 379.11 92.7296 378.389 92.9417 377.746C93.1538 377.103 93.4538 376.553 93.8416 376.096C94.2327 375.638 94.695 375.289 95.2287 375.047C95.7623 374.802 96.3522 374.679 96.9985 374.679C97.5554 374.679 98.0641 374.767 98.5248 374.942C98.9888 375.118 99.3965 375.36 99.7478 375.668C100.102 375.973 100.392 376.326 100.618 376.727C100.847 377.125 101.001 377.549 101.08 378H100.126ZM111.374 374.818V385H110.469L104.453 376.474H104.374V385H103.444V374.818H104.344L110.379 383.354H110.459V374.818H111.374ZM23.1575 399.818H24.0872V406.56C24.0872 407.252 23.9248 407.872 23.6 408.419C23.2752 408.963 22.8228 409.392 22.2428 409.707C21.6661 410.018 20.9949 410.174 20.2293 410.174C19.467 410.174 18.7958 410.017 18.2158 409.702C17.6358 409.387 17.1833 408.958 16.8585 408.414C16.5337 407.871 16.3713 407.252 16.3713 406.56V399.818H17.301V406.495C17.301 407.035 17.422 407.518 17.6639 407.942C17.9059 408.363 18.2456 408.694 18.6831 408.936C19.1239 409.178 19.6393 409.299 20.2293 409.299C20.8192 409.299 21.3346 409.178 21.7754 408.936C22.2162 408.694 22.556 408.363 22.7946 407.942C23.0366 407.518 23.1575 407.035 23.1575 406.495V399.818ZM32.3037 402.364C32.2473 401.797 31.9971 401.346 31.553 401.011C31.1089 400.677 30.5504 400.509 29.8776 400.509C29.4036 400.509 28.986 400.59 28.6247 400.753C28.2668 400.915 27.985 401.141 27.7795 401.429C27.5774 401.714 27.4763 402.039 27.4763 402.403C27.4763 402.672 27.5343 402.907 27.6503 403.109C27.7663 403.312 27.9221 403.486 28.1176 403.631C28.3165 403.774 28.5352 403.897 28.7739 403.999C29.0158 404.102 29.2594 404.188 29.5047 404.258L30.5786 404.566C30.9034 404.656 31.2282 404.77 31.553 404.909C31.8778 405.048 32.1744 405.224 32.4429 405.436C32.7147 405.645 32.9318 405.902 33.0942 406.207C33.2599 406.508 33.3428 406.871 33.3428 407.295C33.3428 407.839 33.2019 408.328 32.9202 408.762C32.6384 409.196 32.2341 409.541 31.7071 409.796C31.1801 410.048 30.5487 410.174 29.8129 410.174C29.1202 410.174 28.5187 410.06 28.0082 409.831C27.4978 409.599 27.0968 409.279 26.8051 408.871C26.5134 408.464 26.3494 407.991 26.3129 407.455H27.2675C27.3006 407.856 27.4332 408.195 27.6652 408.474C27.8972 408.752 28.1988 408.964 28.57 409.11C28.9412 409.253 29.3555 409.324 29.8129 409.324C30.32 409.324 30.7708 409.239 31.1652 409.07C31.5629 408.898 31.8745 408.659 32.0999 408.354C32.3286 408.046 32.4429 407.688 32.4429 407.281C32.4429 406.936 32.3534 406.647 32.1744 406.415C31.9955 406.18 31.7452 405.983 31.4237 405.824C31.1055 405.665 30.736 405.524 30.3151 405.401L29.097 405.043C28.2982 404.805 27.6785 404.475 27.2376 404.054C26.7968 403.633 26.5764 403.096 26.5764 402.443C26.5764 401.896 26.7223 401.416 27.0139 401.001C27.3089 400.584 27.7066 400.259 28.2071 400.027C28.7109 399.792 29.276 399.674 29.9024 399.674C30.5355 399.674 31.0956 399.79 31.5828 400.022C32.07 400.254 32.4562 400.574 32.7412 400.982C33.0295 401.386 33.1837 401.847 33.2036 402.364H32.3037ZM35.566 410V399.818H41.4722V400.653H36.4957V404.487H41.159V405.322H36.4957V409.165H41.5717V410H35.566ZM43.8645 410V399.818H47.1507C47.8732 399.818 48.4765 399.949 48.9604 400.211C49.4476 400.469 49.8138 400.829 50.0591 401.29C50.3077 401.747 50.4319 402.272 50.4319 402.866C50.4319 403.459 50.3077 403.983 50.0591 404.437C49.8138 404.891 49.4492 405.246 48.9653 405.501C48.4814 405.756 47.8815 405.884 47.1656 405.884H44.3666V405.033H47.1408C47.6711 405.033 48.1119 404.946 48.4632 404.77C48.8178 404.594 49.0813 404.344 49.2537 404.019C49.4293 403.694 49.5172 403.31 49.5172 402.866C49.5172 402.422 49.4293 402.034 49.2537 401.702C49.078 401.368 48.8129 401.109 48.4582 400.927C48.1069 400.745 47.6628 400.653 47.1258 400.653H44.7942V410H43.8645ZM48.3538 405.406L50.8595 410H49.7856L47.3048 405.406H48.3538ZM56.6209 410H55.6465L59.3503 399.818H60.3446L64.0485 410H63.074L59.8823 401.026H59.8127L56.6209 410ZM57.3219 406.097H62.373V406.933H57.3219V406.097ZM65.7795 410V399.818H69.0657C69.7883 399.818 70.3915 399.957 70.8754 400.236C71.3626 400.511 71.7288 400.885 71.9741 401.359C72.2227 401.833 72.347 402.367 72.347 402.96C72.347 403.554 72.2243 404.089 71.9791 404.566C71.7338 405.04 71.3692 405.416 70.8853 405.695C70.4014 405.97 69.7999 406.107 69.0806 406.107H66.4954V405.272H69.0558C69.5894 405.272 70.0319 405.173 70.3832 404.974C70.7345 404.772 70.9964 404.496 71.1687 404.148C71.3444 403.8 71.4322 403.404 71.4322 402.96C71.4322 402.516 71.3444 402.12 71.1687 401.772C70.9964 401.424 70.7329 401.151 70.3782 400.952C70.0269 400.753 69.5811 400.653 69.0409 400.653H66.7092V410H65.7795ZM75.4452 399.818V410H74.5155V399.818H75.4452ZM82.9914 399.818V410H82.0617V399.818H82.9914ZM85.6844 399.818H86.7583L90.4522 408.688H90.5417L94.2356 399.818H95.3094V410H94.4344V401.782H94.3549L90.9195 410H90.0744L86.639 401.782H86.5594V410H85.6844V399.818ZM98.0025 410V399.818H101.289C102.011 399.818 102.614 399.957 103.098 400.236C103.586 400.511 103.952 400.885 104.197 401.359C104.446 401.833 104.57 402.367 104.57 402.96C104.57 403.554 104.447 404.089 104.202 404.566C103.957 405.04 103.592 405.416 103.108 405.695C102.624 405.97 102.023 406.107 101.304 406.107H98.7184V405.272H101.279C101.812 405.272 102.255 405.173 102.606 404.974C102.957 404.772 103.219 404.496 103.392 404.148C103.567 403.8 103.655 403.404 103.655 402.96C103.655 402.516 103.567 402.12 103.392 401.772C103.219 401.424 102.956 401.151 102.601 400.952C102.25 400.753 101.804 400.653 101.264 400.653H98.9322V410H98.0025ZM106.738 410V399.818H107.668V409.165H112.52V410H106.738ZM114.599 410V399.818H120.506V400.653H115.529V404.487H120.193V405.322H115.529V409.165H120.605V410H114.599ZM122.898 399.818H123.972L127.666 408.688H127.755L131.449 399.818H132.523V410H131.648V401.782H131.568L128.133 410H127.288L123.853 401.782H123.773V410H122.898V399.818ZM135.216 410V399.818H141.122V400.653H136.146V404.487H140.809V405.322H136.146V409.165H141.222V410H135.216ZM151.444 399.818V410H150.539L144.524 401.474H144.444V410H143.515V399.818H144.414L150.45 408.354H150.529V399.818H151.444ZM153.521 400.653V399.818H160.904V400.653H157.677V410H156.747V400.653H153.521ZM161.808 410H160.834L164.537 399.818H165.532L169.236 410H168.261L165.069 401.026H165L161.808 410ZM162.509 406.097H167.56V406.933H162.509V406.097ZM169.161 400.653V399.818H176.544V400.653H173.317V410H172.387V400.653H169.161ZM179.552 399.818V410H178.623V399.818H179.552ZM190.593 404.909C190.593 405.97 190.404 406.893 190.026 407.678C189.648 408.46 189.128 409.067 188.465 409.498C187.805 409.925 187.046 410.139 186.188 410.139C185.329 410.139 184.569 409.925 183.906 409.498C183.246 409.067 182.728 408.46 182.35 407.678C181.975 406.893 181.788 405.97 181.788 404.909C181.788 403.848 181.975 402.927 182.35 402.145C182.728 401.359 183.248 400.753 183.911 400.325C184.574 399.894 185.333 399.679 186.188 399.679C187.046 399.679 187.805 399.894 188.465 400.325C189.128 400.753 189.648 401.359 190.026 402.145C190.404 402.927 190.593 403.848 190.593 404.909ZM189.688 404.909C189.688 403.998 189.535 403.217 189.23 402.567C188.925 401.915 188.509 401.416 187.982 401.071C187.456 400.726 186.857 400.554 186.188 400.554C185.522 400.554 184.925 400.726 184.398 401.071C183.871 401.416 183.453 401.913 183.145 402.562C182.84 403.212 182.688 403.994 182.688 404.909C182.688 405.821 182.84 406.601 183.145 407.251C183.45 407.9 183.866 408.399 184.393 408.747C184.92 409.092 185.518 409.264 186.188 409.264C186.857 409.264 187.456 409.092 187.982 408.747C188.513 408.402 188.93 407.905 189.235 407.256C189.54 406.603 189.691 405.821 189.688 404.909ZM200.757 399.818V410H199.852L193.836 401.474H193.757V410H192.827V399.818H193.727L199.762 408.354H199.842V399.818H200.757Z" fill="black"/>
<path d="M273.703 224V213.818H274.632V223.165H279.485V224H273.703ZM289.515 218.909C289.515 219.97 289.326 220.893 288.948 221.678C288.57 222.46 288.05 223.067 287.387 223.498C286.727 223.925 285.968 224.139 285.11 224.139C284.251 224.139 283.491 223.925 282.828 223.498C282.168 223.067 281.649 222.46 281.272 221.678C280.897 220.893 280.71 219.97 280.71 218.909C280.71 217.848 280.897 216.927 281.272 216.145C281.649 215.359 282.17 214.753 282.833 214.325C283.496 213.894 284.255 213.679 285.11 213.679C285.968 213.679 286.727 213.894 287.387 214.325C288.05 214.753 288.57 215.359 288.948 216.145C289.326 216.927 289.515 217.848 289.515 218.909ZM288.61 218.909C288.61 217.998 288.457 217.217 288.152 216.567C287.847 215.915 287.431 215.416 286.904 215.071C286.377 214.726 285.779 214.554 285.11 214.554C284.444 214.554 283.847 214.726 283.32 215.071C282.793 215.416 282.375 215.913 282.067 216.562C281.762 217.212 281.61 217.994 281.61 218.909C281.61 219.821 281.762 220.601 282.067 221.251C282.372 221.9 282.788 222.399 283.315 222.747C283.842 223.092 284.44 223.264 285.11 223.264C285.779 223.264 286.377 223.092 286.904 222.747C287.435 222.402 287.852 221.905 288.157 221.256C288.462 220.603 288.613 219.821 288.61 218.909ZM298.794 217C298.701 216.662 298.565 216.345 298.386 216.05C298.207 215.752 297.985 215.492 297.72 215.27C297.458 215.045 297.155 214.869 296.81 214.743C296.469 214.617 296.087 214.554 295.667 214.554C295.004 214.554 294.41 214.726 293.887 215.071C293.363 215.416 292.949 215.913 292.644 216.562C292.342 217.212 292.191 217.994 292.191 218.909C292.191 219.821 292.344 220.601 292.649 221.251C292.954 221.9 293.371 222.399 293.902 222.747C294.435 223.092 295.045 223.264 295.731 223.264C296.358 223.264 296.911 223.125 297.392 222.847C297.872 222.568 298.247 222.17 298.515 221.653C298.787 221.136 298.92 220.522 298.913 219.809L299.211 219.903H295.95V219.068H299.818V219.903C299.818 220.772 299.642 221.522 299.291 222.156C298.94 222.789 298.457 223.277 297.844 223.622C297.231 223.967 296.527 224.139 295.731 224.139C294.843 224.139 294.066 223.925 293.399 223.498C292.733 223.067 292.215 222.46 291.843 221.678C291.475 220.893 291.292 219.97 291.292 218.909C291.292 218.11 291.398 217.389 291.61 216.746C291.822 216.103 292.122 215.553 292.51 215.096C292.901 214.638 293.363 214.289 293.897 214.047C294.43 213.802 295.02 213.679 295.667 213.679C296.223 213.679 296.732 213.767 297.193 213.942C297.657 214.118 298.065 214.36 298.416 214.668C298.77 214.973 299.06 215.326 299.286 215.727C299.515 216.125 299.669 216.549 299.748 217H298.794ZM303.042 213.818V224H302.112V213.818H303.042ZM313.664 213.818V224H312.759L306.744 215.474H306.664V224H305.735V213.818H306.634L312.67 222.354H312.75V213.818H313.664ZM245.199 249H244.225L247.928 238.818H248.923L252.627 249H251.652L248.46 240.026H248.391L245.199 249ZM245.9 245.097H250.951V245.933H245.9V245.097ZM254.358 249V238.818H257.793C258.456 238.818 259.008 238.934 259.449 239.166C259.893 239.398 260.226 239.715 260.448 240.116C260.67 240.517 260.781 240.973 260.781 241.483C260.781 241.907 260.71 242.27 260.567 242.572C260.425 242.873 260.231 243.117 259.986 243.303C259.74 243.488 259.467 243.622 259.165 243.705V243.785C259.493 243.808 259.811 243.924 260.12 244.133C260.428 244.338 260.682 244.627 260.88 244.998C261.079 245.369 261.179 245.813 261.179 246.33C261.179 246.844 261.064 247.303 260.836 247.707C260.607 248.108 260.256 248.425 259.782 248.657C259.311 248.886 258.711 249 257.982 249H254.358ZM255.287 248.165H257.982C258.767 248.165 259.347 247.991 259.722 247.643C260.1 247.295 260.289 246.857 260.289 246.33C260.289 245.942 260.194 245.591 260.005 245.276C259.82 244.958 259.556 244.706 259.215 244.521C258.877 244.335 258.479 244.242 258.022 244.242H255.287V248.165ZM255.287 243.417H257.878C258.279 243.417 258.63 243.334 258.932 243.168C259.233 243.003 259.468 242.774 259.637 242.482C259.807 242.191 259.891 241.857 259.891 241.483C259.891 240.943 259.715 240.504 259.364 240.165C259.013 239.824 258.489 239.653 257.793 239.653H255.287V243.417ZM271.755 243.909C271.755 244.97 271.566 245.893 271.189 246.678C270.811 247.46 270.29 248.067 269.628 248.498C268.968 248.925 268.209 249.139 267.351 249.139C266.492 249.139 265.732 248.925 265.069 248.498C264.409 248.067 263.89 247.46 263.513 246.678C263.138 245.893 262.951 244.97 262.951 243.909C262.951 242.848 263.138 241.927 263.513 241.145C263.89 240.359 264.411 239.753 265.074 239.325C265.736 238.894 266.495 238.679 267.351 238.679C268.209 238.679 268.968 238.894 269.628 239.325C270.29 239.753 270.811 240.359 271.189 241.145C271.566 241.927 271.755 242.848 271.755 243.909ZM270.851 243.909C270.851 242.998 270.698 242.217 270.393 241.567C270.088 240.915 269.672 240.416 269.145 240.071C268.618 239.726 268.02 239.554 267.351 239.554C266.684 239.554 266.088 239.726 265.561 240.071C265.034 240.416 264.616 240.913 264.308 241.562C264.003 242.212 263.851 242.994 263.851 243.909C263.851 244.821 264.003 245.601 264.308 246.251C264.613 246.9 265.029 247.399 265.556 247.747C266.083 248.092 266.681 248.264 267.351 248.264C268.02 248.264 268.618 248.092 269.145 247.747C269.676 247.402 270.093 246.905 270.398 246.256C270.703 245.603 270.854 244.821 270.851 243.909ZM280.776 238.818H281.706V245.56C281.706 246.252 281.543 246.872 281.219 247.419C280.894 247.963 280.441 248.392 279.861 248.707C279.285 249.018 278.613 249.174 277.848 249.174C277.085 249.174 276.414 249.017 275.834 248.702C275.254 248.387 274.802 247.958 274.477 247.414C274.152 246.871 273.99 246.252 273.99 245.56V238.818H274.92V245.495C274.92 246.035 275.04 246.518 275.282 246.942C275.524 247.363 275.864 247.694 276.302 247.936C276.742 248.178 277.258 248.299 277.848 248.299C278.438 248.299 278.953 248.178 279.394 247.936C279.835 247.694 280.174 247.363 280.413 246.942C280.655 246.518 280.776 246.035 280.776 245.495V238.818ZM283.777 239.653V238.818H291.16V239.653H287.934V249H287.004V239.653H283.777ZM303.949 238.818H304.879V245.56C304.879 246.252 304.716 246.872 304.391 247.419C304.067 247.963 303.614 248.392 303.034 248.707C302.457 249.018 301.786 249.174 301.021 249.174C300.258 249.174 299.587 249.017 299.007 248.702C298.427 248.387 297.975 247.958 297.65 247.414C297.325 246.871 297.163 246.252 297.163 245.56V238.818H298.092V245.495C298.092 246.035 298.213 246.518 298.455 246.942C298.697 247.363 299.037 247.694 299.474 247.936C299.915 248.178 300.431 248.299 301.021 248.299C301.611 248.299 302.126 248.178 302.567 247.936C303.008 247.694 303.347 247.363 303.586 246.942C303.828 246.518 303.949 246.035 303.949 245.495V238.818ZM313.095 241.364C313.039 240.797 312.788 240.346 312.344 240.011C311.9 239.677 311.342 239.509 310.669 239.509C310.195 239.509 309.777 239.59 309.416 239.753C309.058 239.915 308.776 240.141 308.571 240.429C308.369 240.714 308.268 241.039 308.268 241.403C308.268 241.672 308.326 241.907 308.442 242.109C308.558 242.312 308.713 242.486 308.909 242.631C309.108 242.774 309.327 242.897 309.565 242.999C309.807 243.102 310.051 243.188 310.296 243.258L311.37 243.566C311.695 243.656 312.02 243.77 312.344 243.909C312.669 244.048 312.966 244.224 313.234 244.436C313.506 244.645 313.723 244.902 313.886 245.207C314.051 245.508 314.134 245.871 314.134 246.295C314.134 246.839 313.993 247.328 313.712 247.762C313.43 248.196 313.025 248.541 312.498 248.796C311.971 249.048 311.34 249.174 310.604 249.174C309.912 249.174 309.31 249.06 308.8 248.831C308.289 248.599 307.888 248.279 307.596 247.871C307.305 247.464 307.141 246.991 307.104 246.455H308.059C308.092 246.856 308.225 247.195 308.457 247.474C308.689 247.752 308.99 247.964 309.361 248.11C309.733 248.253 310.147 248.324 310.604 248.324C311.111 248.324 311.562 248.239 311.957 248.07C312.354 247.898 312.666 247.659 312.891 247.354C313.12 247.046 313.234 246.688 313.234 246.281C313.234 245.936 313.145 245.647 312.966 245.415C312.787 245.18 312.537 244.983 312.215 244.824C311.897 244.665 311.527 244.524 311.106 244.401L309.888 244.043C309.09 243.805 308.47 243.475 308.029 243.054C307.588 242.633 307.368 242.096 307.368 241.443C307.368 240.896 307.514 240.416 307.805 240.001C308.1 239.584 308.498 239.259 308.998 239.027C309.502 238.792 310.067 238.674 310.694 238.674C311.327 238.674 311.887 238.79 312.374 239.022C312.861 239.254 313.247 239.574 313.533 239.982C313.821 240.386 313.975 240.847 313.995 241.364H313.095Z" fill="black"/>
</svg>
