<svg width="927" height="560" viewBox="0 0 927 560" fill="none" xmlns="http://www.w3.org/2000/svg">
<rect x="11.5" y="11.5" width="335" height="471" stroke="black"/>
<rect x="443.5" y="549.5" width="335" height="472" transform="rotate(-90 443.5 549.5)" stroke="black"/>
<rect x="0.5" y="0.5" width="21" height="20" stroke="black"/>
<rect x="0.5" y="472.5" width="21" height="21" stroke="black"/>
<rect x="337.5" y="471.5" width="20" height="21" stroke="white"/>
<rect x="337.5" y="471.5" width="20" height="21" stroke="black"/>
<rect x="902.5" y="539.5" width="21" height="20" stroke="black"/>
<rect x="432.5" y="203.5" width="21" height="20" stroke="black"/>
<rect x="336.5" y="0.5" width="21" height="20" stroke="black"/>
<rect x="432.5" y="539.5" width="21" height="20" stroke="black"/>
<rect x="905.5" y="205.5" width="21" height="20" stroke="black"/>
<line x1="45.0001" y1="108.5" x2="193.746" y2="108.5" stroke="black"/>
<line x1="45" y1="108.5" x2="228" y2="108.5" stroke="black"/>
<path d="M56.7614 100V85.4545H65.483V87.017H58.5227V91.9318H64.8295V93.4943H58.5227V100H56.7614ZM68.4796 100V85.4545H77.2581V87.017H70.241V91.9318H76.8035V93.4943H70.241V98.4375H77.3717V100H68.4796ZM88.2337 80.767V104.688H86.8132V80.767H88.2337ZM98.1457 100V85.4545H99.9071V92.6705H100.078L106.612 85.4545H108.913L102.805 92.017L108.913 100H106.782L101.725 93.2386L99.9071 95.2841V100H98.1457ZM112.934 85.4545V100H111.173V85.4545H112.934ZM116.446 85.4545H118.548L123.491 97.5284H123.661L128.605 85.4545H130.707V100H129.059V88.9489H128.917L124.372 100H122.781L118.235 88.9489H118.093V100H116.446V85.4545ZM139.824 85.4545H141.926L146.869 97.5284H147.039L151.983 85.4545H154.085V100H152.437V88.9489H152.295L147.75 100H146.159L141.613 88.9489H141.471V100H139.824V85.4545ZM159.358 85.4545V100H157.597V85.4545H159.358ZM174.404 85.4545V100H172.699L164.773 88.5795H164.631V100H162.869V85.4545H164.574L172.529 96.9034H172.671V85.4545H174.404ZM185.863 89.0909C185.777 88.3712 185.432 87.8125 184.826 87.4148C184.22 87.017 183.476 86.8182 182.596 86.8182C181.952 86.8182 181.388 86.9223 180.905 87.1307C180.427 87.339 180.053 87.6255 179.783 87.9901C179.518 88.3546 179.385 88.7689 179.385 89.233C179.385 89.6212 179.478 89.955 179.662 90.2344C179.852 90.509 180.093 90.7386 180.387 90.9233C180.68 91.1032 180.988 91.2524 181.31 91.3707C181.632 91.4844 181.928 91.5767 182.198 91.6477L183.675 92.0455C184.054 92.1449 184.475 92.2822 184.939 92.4574C185.408 92.6326 185.856 92.8717 186.282 93.1747C186.713 93.473 187.068 93.8565 187.347 94.3253C187.626 94.794 187.766 95.3693 187.766 96.0511C187.766 96.8371 187.56 97.5473 187.148 98.1818C186.741 98.8163 186.144 99.3205 185.358 99.6946C184.577 100.069 183.628 100.256 182.51 100.256C181.469 100.256 180.567 100.088 179.804 99.7514C179.047 99.4152 178.45 98.9465 178.015 98.3452C177.584 97.7438 177.34 97.0455 177.283 96.25H179.101C179.149 96.7992 179.333 97.2538 179.655 97.6136C179.982 97.9687 180.394 98.2339 180.891 98.4091C181.393 98.5795 181.933 98.6648 182.51 98.6648C183.183 98.6648 183.786 98.5559 184.321 98.3381C184.856 98.1155 185.28 97.8078 185.593 97.4148C185.905 97.017 186.061 96.553 186.061 96.0227C186.061 95.5398 185.927 95.1468 185.657 94.8438C185.387 94.5407 185.032 94.2945 184.591 94.1051C184.151 93.9157 183.675 93.75 183.164 93.608L181.374 93.0966C180.238 92.7699 179.338 92.3035 178.675 91.6974C178.012 91.0914 177.681 90.2983 177.681 89.3182C177.681 88.5038 177.901 87.7936 178.341 87.1875C178.786 86.5767 179.383 86.1032 180.131 85.767C180.884 85.4261 181.724 85.2557 182.652 85.2557C183.59 85.2557 184.423 85.4238 185.152 85.7599C185.882 86.0914 186.459 86.5459 186.885 87.1236C187.316 87.7012 187.544 88.357 187.567 89.0909H185.863ZM190.642 100V85.4545H199.42V87.017H192.403V91.9318H198.966V93.4943H192.403V98.4375H199.534V100H190.642ZM214.848 92.7273C214.848 94.2614 214.571 95.5871 214.017 96.7045C213.463 97.822 212.703 98.6837 211.737 99.2898C210.771 99.8958 209.668 100.199 208.427 100.199C207.187 100.199 206.084 99.8958 205.118 99.2898C204.152 98.6837 203.392 97.822 202.838 96.7045C202.284 95.5871 202.007 94.2614 202.007 92.7273C202.007 91.1932 202.284 89.8674 202.838 88.75C203.392 87.6326 204.152 86.7708 205.118 86.1648C206.084 85.5587 207.187 85.2557 208.427 85.2557C209.668 85.2557 210.771 85.5587 211.737 86.1648C212.703 86.7708 213.463 87.6326 214.017 88.75C214.571 89.8674 214.848 91.1932 214.848 92.7273ZM213.143 92.7273C213.143 91.4678 212.933 90.4048 212.511 89.5384C212.095 88.6719 211.529 88.0161 210.814 87.571C210.104 87.1259 209.308 86.9034 208.427 86.9034C207.547 86.9034 206.749 87.1259 206.034 87.571C205.324 88.0161 204.758 88.6719 204.336 89.5384C203.92 90.4048 203.711 91.4678 203.711 92.7273C203.711 93.9867 203.92 95.0497 204.336 95.9162C204.758 96.7827 205.324 97.4384 206.034 97.8835C206.749 98.3286 207.547 98.5511 208.427 98.5511C209.308 98.5511 210.104 98.3286 210.814 97.8835C211.529 97.4384 212.095 96.7827 212.511 95.9162C212.933 95.0497 213.143 93.9867 213.143 92.7273Z" fill="black"/>
<path d="M52.8636 138.273C52.7992 137.625 52.5133 137.11 52.0057 136.727C51.4981 136.345 50.8598 136.153 50.0909 136.153C49.5492 136.153 49.072 136.246 48.6591 136.432C48.25 136.617 47.928 136.875 47.6932 137.205C47.4621 137.53 47.3466 137.902 47.3466 138.318C47.3466 138.625 47.4129 138.894 47.5455 139.125C47.678 139.356 47.8561 139.555 48.0795 139.722C48.3068 139.884 48.5568 140.025 48.8295 140.142C49.1061 140.259 49.3845 140.358 49.6648 140.438L50.892 140.79C51.2633 140.892 51.6345 141.023 52.0057 141.182C52.3769 141.341 52.7159 141.542 53.0227 141.784C53.3333 142.023 53.5814 142.316 53.767 142.665C53.9564 143.009 54.0511 143.424 54.0511 143.909C54.0511 144.53 53.8902 145.089 53.5682 145.585C53.2462 146.081 52.7841 146.475 52.1818 146.767C51.5795 147.055 50.858 147.199 50.017 147.199C49.2254 147.199 48.5379 147.068 47.9545 146.807C47.3712 146.542 46.9129 146.176 46.5795 145.71C46.2462 145.244 46.0587 144.705 46.017 144.091H47.108C47.1458 144.549 47.2973 144.937 47.5625 145.256C47.8277 145.574 48.1723 145.816 48.5966 145.983C49.0208 146.146 49.4943 146.227 50.017 146.227C50.5966 146.227 51.1117 146.131 51.5625 145.938C52.017 145.741 52.3731 145.468 52.6307 145.119C52.892 144.767 53.0227 144.358 53.0227 143.892C53.0227 143.498 52.9205 143.169 52.7159 142.903C52.5114 142.634 52.2254 142.409 51.858 142.227C51.4943 142.045 51.072 141.884 50.5909 141.744L49.1989 141.335C48.286 141.062 47.5777 140.686 47.0739 140.205C46.5701 139.723 46.3182 139.11 46.3182 138.364C46.3182 137.739 46.4848 137.189 46.8182 136.716C47.1553 136.239 47.6098 135.867 48.1818 135.602C48.7576 135.333 49.4034 135.199 50.1193 135.199C50.8428 135.199 51.483 135.331 52.0398 135.597C52.5966 135.862 53.0379 136.227 53.3636 136.693C53.6932 137.155 53.8693 137.682 53.892 138.273H52.8636ZM57.6545 135.364V147H56.592V135.364H57.6545ZM68.7833 139C68.6773 138.614 68.522 138.252 68.3174 137.915C68.1129 137.574 67.8591 137.277 67.5561 137.023C67.2568 136.765 66.9102 136.564 66.5163 136.42C66.1261 136.277 65.6905 136.205 65.2095 136.205C64.4519 136.205 63.7739 136.402 63.1754 136.795C62.5769 137.189 62.1034 137.758 61.7549 138.5C61.4102 139.242 61.2379 140.136 61.2379 141.182C61.2379 142.223 61.4121 143.116 61.7606 143.858C62.1091 144.6 62.5864 145.17 63.1924 145.568C63.8023 145.962 64.4993 146.159 65.2833 146.159C65.9993 146.159 66.6318 146 67.1811 145.682C67.7303 145.364 68.1583 144.909 68.4652 144.318C68.7758 143.727 68.9273 143.025 68.9197 142.21L69.2606 142.318H65.5333V141.364H69.9538V142.318C69.9538 143.311 69.753 144.169 69.3515 144.892C68.95 145.616 68.3989 146.174 67.6981 146.568C66.9974 146.962 66.1924 147.159 65.2833 147.159C64.2682 147.159 63.3799 146.915 62.6186 146.426C61.8572 145.934 61.2644 145.241 60.8402 144.347C60.4197 143.449 60.2095 142.394 60.2095 141.182C60.2095 140.269 60.3307 139.445 60.5731 138.71C60.8155 137.975 61.1583 137.347 61.6015 136.824C62.0485 136.301 62.5769 135.902 63.1868 135.625C63.7966 135.345 64.4708 135.205 65.2095 135.205C65.8458 135.205 66.4273 135.305 66.9538 135.506C67.4841 135.706 67.95 135.983 68.3515 136.335C68.7568 136.684 69.0883 137.087 69.3458 137.545C69.6072 138 69.7833 138.485 69.8743 139H68.7833ZM81.6381 135.364V147H80.604L73.729 137.256H73.6381V147H72.5756V135.364H73.604L80.5017 145.119H80.5926V135.364H81.6381ZM96.9555 135.364H98.018V143.068C98.018 143.86 97.8324 144.568 97.4612 145.193C97.09 145.814 96.5729 146.305 95.9101 146.665C95.251 147.021 94.4839 147.199 93.6089 147.199C92.7377 147.199 91.9707 147.019 91.3078 146.659C90.6449 146.299 90.1279 145.809 89.7566 145.188C89.3854 144.566 89.1998 143.86 89.1998 143.068V135.364H90.2623V142.994C90.2623 143.612 90.4006 144.163 90.6771 144.648C90.9536 145.129 91.3419 145.508 91.8419 145.784C92.3457 146.061 92.9347 146.199 93.6089 146.199C94.2832 146.199 94.8722 146.061 95.376 145.784C95.8798 145.508 96.268 145.129 96.5407 144.648C96.8173 144.163 96.9555 143.612 96.9555 142.994V135.364ZM101.09 147V135.364H104.846C105.672 135.364 106.361 135.523 106.914 135.841C107.471 136.155 107.889 136.583 108.17 137.125C108.454 137.667 108.596 138.277 108.596 138.955C108.596 139.633 108.456 140.244 108.175 140.79C107.895 141.331 107.478 141.761 106.925 142.08C106.372 142.394 105.685 142.551 104.863 142.551H101.908V141.597H104.834C105.444 141.597 105.95 141.483 106.351 141.256C106.753 141.025 107.052 140.71 107.249 140.312C107.45 139.915 107.55 139.462 107.55 138.955C107.55 138.447 107.45 137.994 107.249 137.597C107.052 137.199 106.751 136.886 106.346 136.659C105.944 136.432 105.435 136.318 104.817 136.318H102.153V147H101.09ZM46.5625 164.364L50.1989 174.619H50.3011L53.9375 164.364H55.0511L50.8182 176H49.6818L45.4489 164.364H46.5625ZM66.0224 170.182C66.0224 171.394 65.8064 172.449 65.3746 173.347C64.9428 174.241 64.3481 174.934 63.5905 175.426C62.8367 175.915 61.9693 176.159 60.9883 176.159C60.0072 176.159 59.1379 175.915 58.3803 175.426C57.6265 174.934 57.0337 174.241 56.6019 173.347C56.1739 172.449 55.9599 171.394 55.9599 170.182C55.9599 168.97 56.1739 167.917 56.6019 167.023C57.0337 166.125 57.6284 165.432 58.386 164.943C59.1436 164.451 60.011 164.205 60.9883 164.205C61.9693 164.205 62.8367 164.451 63.5905 164.943C64.3481 165.432 64.9428 166.125 65.3746 167.023C65.8064 167.917 66.0224 168.97 66.0224 170.182ZM64.9883 170.182C64.9883 169.14 64.814 168.248 64.4655 167.506C64.117 166.759 63.6417 166.189 63.0394 165.795C62.4371 165.402 61.7534 165.205 60.9883 165.205C60.2269 165.205 59.5451 165.402 58.9428 165.795C58.3405 166.189 57.8633 166.758 57.511 167.5C57.1625 168.242 56.9883 169.136 56.9883 170.182C56.9883 171.223 57.1625 172.116 57.511 172.858C57.8595 173.6 58.3349 174.17 58.9371 174.568C59.5394 174.962 60.2231 175.159 60.9883 175.159C61.7534 175.159 62.4371 174.962 63.0394 174.568C63.6455 174.174 64.1227 173.606 64.4712 172.864C64.8197 172.117 64.992 171.223 64.9883 170.182ZM67.387 165.318V164.364H75.8245V165.318H72.137V176H71.0745V165.318H67.387ZM79.2631 164.364V176H78.2006V164.364H79.2631ZM91.4033 164.364V176H90.3692L83.4942 166.256H83.4033V176H82.3408V164.364H83.3692L90.267 174.119H90.3579V164.364H91.4033ZM102.532 168C102.426 167.614 102.271 167.252 102.066 166.915C101.862 166.574 101.608 166.277 101.305 166.023C101.006 165.765 100.659 165.564 100.265 165.42C99.875 165.277 99.4394 165.205 98.9584 165.205C98.2008 165.205 97.5227 165.402 96.9243 165.795C96.3258 166.189 95.8523 166.758 95.5038 167.5C95.1591 168.242 94.9868 169.136 94.9868 170.182C94.9868 171.223 95.161 172.116 95.5095 172.858C95.858 173.6 96.3352 174.17 96.9413 174.568C97.5512 174.962 98.2481 175.159 99.0322 175.159C99.7481 175.159 100.381 175 100.93 174.682C101.479 174.364 101.907 173.909 102.214 173.318C102.525 172.727 102.676 172.025 102.669 171.21L103.009 171.318H99.2822V170.364H103.703V171.318C103.703 172.311 103.502 173.169 103.1 173.892C102.699 174.616 102.148 175.174 101.447 175.568C100.746 175.962 99.9413 176.159 99.0322 176.159C98.0171 176.159 97.1288 175.915 96.3674 175.426C95.6061 174.934 95.0133 174.241 94.589 173.347C94.1686 172.449 93.9584 171.394 93.9584 170.182C93.9584 169.269 94.0796 168.445 94.322 167.71C94.5644 166.975 94.9072 166.347 95.3504 165.824C95.7974 165.301 96.3258 164.902 96.9356 164.625C97.5455 164.345 98.2197 164.205 98.9584 164.205C99.5947 164.205 100.176 164.305 100.703 164.506C101.233 164.706 101.699 164.983 102.1 165.335C102.506 165.684 102.837 166.087 103.095 166.545C103.356 167 103.532 167.485 103.623 168H102.532ZM46.5455 193.364H47.7727L51.9943 203.5H52.0966L56.3182 193.364H57.5455V205H56.5455V195.608H56.4545L52.5284 205H51.5625L47.6364 195.608H47.5455V205H46.5455V193.364ZM60.6232 205V193.364H67.3732V194.318H61.6857V198.699H67.0153V199.653H61.6857V204.045H67.4868V205H60.6232ZM70.1072 193.364H71.3345L75.5561 203.5H75.6583L79.8799 193.364H81.1072V205H80.1072V195.608H80.0163L76.0902 205H75.1243L71.1981 195.608H71.1072V205H70.1072V193.364ZM84.185 205V193.364H88.1111C88.8687 193.364 89.4993 193.496 90.0031 193.761C90.5107 194.027 90.8914 194.388 91.1452 194.847C91.399 195.305 91.5259 195.826 91.5259 196.409C91.5259 196.894 91.4444 197.309 91.2815 197.653C91.1187 197.998 90.8971 198.277 90.6168 198.489C90.3365 198.701 90.024 198.854 89.6793 198.949V199.04C90.0543 199.066 90.4179 199.199 90.7702 199.438C91.1225 199.672 91.4122 200.002 91.6395 200.426C91.8668 200.85 91.9804 201.358 91.9804 201.949C91.9804 202.536 91.8497 203.061 91.5884 203.523C91.327 203.981 90.9255 204.343 90.3838 204.608C89.8459 204.869 89.1603 205 88.327 205H84.185ZM85.2475 204.045H88.327C89.2247 204.045 89.8876 203.847 90.3156 203.449C90.7475 203.051 90.9634 202.551 90.9634 201.949C90.9634 201.506 90.8554 201.104 90.6395 200.744C90.4274 200.381 90.1262 200.093 89.7361 199.881C89.3497 199.669 88.8952 199.562 88.3725 199.562H85.2475V204.045ZM85.2475 198.619H88.2077C88.666 198.619 89.0675 198.525 89.4122 198.335C89.7569 198.146 90.0259 197.884 90.219 197.551C90.4122 197.218 90.5088 196.837 90.5088 196.409C90.5088 195.792 90.3081 195.29 89.9065 194.903C89.505 194.513 88.9065 194.318 88.1111 194.318H85.2475V198.619ZM94.5283 205V193.364H101.278V194.318H95.5908V198.699H100.92V199.653H95.5908V204.045H101.392V205H94.5283ZM104.012 205V193.364H107.768C108.594 193.364 109.283 193.513 109.836 193.812C110.393 194.108 110.812 194.519 111.092 195.045C111.376 195.568 111.518 196.169 111.518 196.847C111.518 197.525 111.376 198.123 111.092 198.642C110.812 199.161 110.395 199.566 109.842 199.858C109.289 200.15 108.603 200.295 107.785 200.295H104.586V199.324H107.757C108.363 199.324 108.866 199.223 109.268 199.023C109.673 198.822 109.974 198.536 110.171 198.165C110.372 197.794 110.473 197.354 110.473 196.847C110.473 196.339 110.372 195.896 110.171 195.517C109.971 195.134 109.668 194.839 109.262 194.631C108.861 194.422 108.353 194.318 107.74 194.318H105.075V205H104.012ZM109.143 199.75L112.007 205H110.779L107.944 199.75H109.143ZM120.408 196.273C120.344 195.625 120.058 195.11 119.55 194.727C119.043 194.345 118.404 194.153 117.636 194.153C117.094 194.153 116.617 194.246 116.204 194.432C115.795 194.617 115.473 194.875 115.238 195.205C115.007 195.53 114.891 195.902 114.891 196.318C114.891 196.625 114.958 196.894 115.09 197.125C115.223 197.356 115.401 197.555 115.624 197.722C115.851 197.884 116.101 198.025 116.374 198.142C116.651 198.259 116.929 198.358 117.209 198.438L118.437 198.79C118.808 198.892 119.179 199.023 119.55 199.182C119.922 199.341 120.261 199.542 120.567 199.784C120.878 200.023 121.126 200.316 121.312 200.665C121.501 201.009 121.596 201.424 121.596 201.909C121.596 202.53 121.435 203.089 121.113 203.585C120.791 204.081 120.329 204.475 119.726 204.767C119.124 205.055 118.403 205.199 117.562 205.199C116.77 205.199 116.083 205.068 115.499 204.807C114.916 204.542 114.458 204.176 114.124 203.71C113.791 203.244 113.603 202.705 113.562 202.091H114.653C114.69 202.549 114.842 202.937 115.107 203.256C115.372 203.574 115.717 203.816 116.141 203.983C116.565 204.146 117.039 204.227 117.562 204.227C118.141 204.227 118.656 204.131 119.107 203.938C119.562 203.741 119.918 203.468 120.175 203.119C120.437 202.767 120.567 202.358 120.567 201.892C120.567 201.498 120.465 201.169 120.261 200.903C120.056 200.634 119.77 200.409 119.403 200.227C119.039 200.045 118.617 199.884 118.136 199.744L116.743 199.335C115.831 199.062 115.122 198.686 114.618 198.205C114.115 197.723 113.863 197.11 113.863 196.364C113.863 195.739 114.029 195.189 114.363 194.716C114.7 194.239 115.154 193.867 115.726 193.602C116.302 193.333 116.948 193.199 117.664 193.199C118.387 193.199 119.028 193.331 119.584 193.597C120.141 193.862 120.583 194.227 120.908 194.693C121.238 195.155 121.414 195.682 121.437 196.273H120.408Z" fill="black"/>
<line x1="124" y1="306.5" x2="272.746" y2="306.5" stroke="black"/>
<line x1="124" y1="306.5" x2="307" y2="306.5" stroke="black"/>
<path d="M135.761 298V283.455H144.483V285.017H137.523V289.932H143.83V291.494H137.523V298H135.761ZM147.48 298V283.455H156.258V285.017H149.241V289.932H155.804V291.494H149.241V296.438H156.372V298H147.48ZM167.234 278.767V302.688H165.813V278.767H167.234ZM188.68 283.455V298H186.975L179.049 286.58H178.907V298H177.146V283.455H178.85L186.805 294.903H186.947V283.455H188.68ZM192.781 298H190.934L196.275 283.455H198.093L203.434 298H201.588L197.241 285.756H197.128L192.781 298ZM193.463 292.318H200.906V293.881H193.463V292.318ZM205.68 283.455H207.782L212.725 295.528H212.896L217.839 283.455H219.941V298H218.294V286.949H218.152L213.606 298H212.015L207.47 286.949H207.328V298H205.68V283.455ZM239.001 288C238.845 287.522 238.639 287.093 238.383 286.714C238.132 286.331 237.832 286.004 237.481 285.734C237.136 285.464 236.743 285.259 236.302 285.116C235.862 284.974 235.379 284.903 234.853 284.903C233.992 284.903 233.208 285.126 232.503 285.571C231.797 286.016 231.236 286.672 230.819 287.538C230.403 288.405 230.194 289.468 230.194 290.727C230.194 291.987 230.405 293.05 230.826 293.916C231.248 294.783 231.818 295.438 232.538 295.884C233.258 296.329 234.067 296.551 234.967 296.551C235.8 296.551 236.534 296.374 237.169 296.018C237.808 295.659 238.305 295.152 238.66 294.499C239.02 293.84 239.2 293.066 239.2 292.176L239.74 292.29H235.365V290.727H240.905V292.29C240.905 293.488 240.649 294.529 240.137 295.415C239.631 296.3 238.93 296.987 238.035 297.474C237.145 297.957 236.122 298.199 234.967 298.199C233.679 298.199 232.548 297.896 231.572 297.29C230.601 296.684 229.844 295.822 229.299 294.705C228.76 293.587 228.49 292.261 228.49 290.727C228.49 289.577 228.644 288.542 228.951 287.624C229.264 286.7 229.704 285.914 230.272 285.266C230.841 284.617 231.513 284.12 232.289 283.774C233.066 283.429 233.921 283.256 234.853 283.256C235.62 283.256 236.335 283.372 236.998 283.604C237.666 283.831 238.26 284.155 238.781 284.577C239.307 284.993 239.744 285.493 240.095 286.075C240.445 286.653 240.687 287.295 240.819 288H239.001ZM245.663 283.455V298H243.901V283.455H245.663ZM249.174 298V283.455H254.089C255.225 283.455 256.158 283.649 256.887 284.037C257.616 284.42 258.156 284.948 258.507 285.621C258.857 286.293 259.032 287.058 259.032 287.915C259.032 288.772 258.857 289.532 258.507 290.195C258.156 290.857 257.619 291.378 256.894 291.757C256.17 292.131 255.244 292.318 254.117 292.318H250.14V290.727H254.061C254.837 290.727 255.462 290.614 255.936 290.386C256.414 290.159 256.759 289.837 256.972 289.42C257.19 288.999 257.299 288.497 257.299 287.915C257.299 287.332 257.19 286.823 256.972 286.388C256.755 285.952 256.407 285.616 255.928 285.379C255.45 285.138 254.818 285.017 254.032 285.017H250.936V298H249.174ZM256.021 291.466L259.6 298H257.555L254.032 291.466H256.021ZM263.709 283.455V298H261.947V283.455H263.709ZM267.22 283.455H269.322L274.266 295.528H274.436L279.379 283.455H281.481V298H279.834V286.949H279.692L275.146 298H273.555L269.01 286.949H268.868V298H267.22V283.455Z" fill="black"/>
<path d="M259.781 346V334.364H260.844V345.045H266.389V346H259.781ZM277.852 340.182C277.852 341.394 277.636 342.449 277.204 343.347C276.772 344.241 276.178 344.934 275.42 345.426C274.666 345.915 273.799 346.159 272.818 346.159C271.837 346.159 270.968 345.915 270.21 345.426C269.456 344.934 268.863 344.241 268.432 343.347C268.003 342.449 267.789 341.394 267.789 340.182C267.789 338.97 268.003 337.917 268.432 337.023C268.863 336.125 269.458 335.432 270.216 334.943C270.973 334.451 271.841 334.205 272.818 334.205C273.799 334.205 274.666 334.451 275.42 334.943C276.178 335.432 276.772 336.125 277.204 337.023C277.636 337.917 277.852 338.97 277.852 340.182ZM276.818 340.182C276.818 339.14 276.644 338.248 276.295 337.506C275.947 336.759 275.471 336.189 274.869 335.795C274.267 335.402 273.583 335.205 272.818 335.205C272.057 335.205 271.375 335.402 270.772 335.795C270.17 336.189 269.693 336.758 269.341 337.5C268.992 338.242 268.818 339.136 268.818 340.182C268.818 341.223 268.992 342.116 269.341 342.858C269.689 343.6 270.164 344.17 270.767 344.568C271.369 344.962 272.053 345.159 272.818 345.159C273.583 345.159 274.267 344.962 274.869 344.568C275.475 344.174 275.952 343.606 276.301 342.864C276.649 342.117 276.822 341.223 276.818 340.182ZM288.457 338C288.351 337.614 288.195 337.252 287.991 336.915C287.786 336.574 287.532 336.277 287.229 336.023C286.93 335.765 286.584 335.564 286.19 335.42C285.8 335.277 285.364 335.205 284.883 335.205C284.125 335.205 283.447 335.402 282.849 335.795C282.25 336.189 281.777 336.758 281.428 337.5C281.084 338.242 280.911 339.136 280.911 340.182C280.911 341.223 281.086 342.116 281.434 342.858C281.782 343.6 282.26 344.17 282.866 344.568C283.476 344.962 284.173 345.159 284.957 345.159C285.673 345.159 286.305 345 286.854 344.682C287.404 344.364 287.832 343.909 288.139 343.318C288.449 342.727 288.601 342.025 288.593 341.21L288.934 341.318H285.207V340.364H289.627V341.318C289.627 342.311 289.426 343.169 289.025 343.892C288.623 344.616 288.072 345.174 287.371 345.568C286.671 345.962 285.866 346.159 284.957 346.159C283.942 346.159 283.053 345.915 282.292 345.426C281.531 344.934 280.938 344.241 280.514 343.347C280.093 342.449 279.883 341.394 279.883 340.182C279.883 339.269 280.004 338.445 280.246 337.71C280.489 336.975 280.832 336.347 281.275 335.824C281.722 335.301 282.25 334.902 282.86 334.625C283.47 334.345 284.144 334.205 284.883 334.205C285.519 334.205 286.101 334.305 286.627 334.506C287.157 334.706 287.623 334.983 288.025 335.335C288.43 335.684 288.762 336.087 289.019 336.545C289.281 337 289.457 337.485 289.548 338H288.457ZM293.311 334.364V346H292.249V334.364H293.311ZM305.452 334.364V346H304.418L297.543 336.256H297.452V346H296.389V334.364H297.418L304.315 344.119H304.406V334.364H305.452ZM227.206 375H226.092L230.325 363.364H231.461L235.694 375H234.581L230.933 364.744H230.853L227.206 375ZM228.007 370.54H233.78V371.494H228.007V370.54ZM237.673 375V363.364H241.599C242.356 363.364 242.987 363.496 243.491 363.761C243.998 364.027 244.379 364.388 244.633 364.847C244.887 365.305 245.014 365.826 245.014 366.409C245.014 366.894 244.932 367.309 244.769 367.653C244.606 367.998 244.385 368.277 244.105 368.489C243.824 368.701 243.512 368.854 243.167 368.949V369.04C243.542 369.066 243.906 369.199 244.258 369.438C244.61 369.672 244.9 370.002 245.127 370.426C245.355 370.85 245.468 371.358 245.468 371.949C245.468 372.536 245.337 373.061 245.076 373.523C244.815 373.981 244.413 374.343 243.872 374.608C243.334 374.869 242.648 375 241.815 375H237.673ZM238.735 374.045H241.815C242.712 374.045 243.375 373.847 243.803 373.449C244.235 373.051 244.451 372.551 244.451 371.949C244.451 371.506 244.343 371.104 244.127 370.744C243.915 370.381 243.614 370.093 243.224 369.881C242.837 369.669 242.383 369.562 241.86 369.562H238.735V374.045ZM238.735 368.619H241.695C242.154 368.619 242.555 368.525 242.9 368.335C243.245 368.146 243.514 367.884 243.707 367.551C243.9 367.218 243.997 366.837 243.997 366.409C243.997 365.792 243.796 365.29 243.394 364.903C242.993 364.513 242.394 364.318 241.599 364.318H238.735V368.619ZM257.556 369.182C257.556 370.394 257.34 371.449 256.908 372.347C256.476 373.241 255.882 373.934 255.124 374.426C254.37 374.915 253.503 375.159 252.522 375.159C251.541 375.159 250.671 374.915 249.914 374.426C249.16 373.934 248.567 373.241 248.135 372.347C247.707 371.449 247.493 370.394 247.493 369.182C247.493 367.97 247.707 366.917 248.135 366.023C248.567 365.125 249.162 364.432 249.919 363.943C250.677 363.451 251.544 363.205 252.522 363.205C253.503 363.205 254.37 363.451 255.124 363.943C255.882 364.432 256.476 365.125 256.908 366.023C257.34 366.917 257.556 367.97 257.556 369.182ZM256.522 369.182C256.522 368.14 256.348 367.248 255.999 366.506C255.651 365.759 255.175 365.189 254.573 364.795C253.971 364.402 253.287 364.205 252.522 364.205C251.76 364.205 251.079 364.402 250.476 364.795C249.874 365.189 249.397 365.758 249.044 366.5C248.696 367.242 248.522 368.136 248.522 369.182C248.522 370.223 248.696 371.116 249.044 371.858C249.393 372.6 249.868 373.17 250.471 373.568C251.073 373.962 251.757 374.159 252.522 374.159C253.287 374.159 253.971 373.962 254.573 373.568C255.179 373.174 255.656 372.606 256.005 371.864C256.353 371.117 256.526 370.223 256.522 369.182ZM267.865 363.364H268.928V371.068C268.928 371.86 268.742 372.568 268.371 373.193C268 373.814 267.483 374.305 266.82 374.665C266.161 375.021 265.394 375.199 264.519 375.199C263.647 375.199 262.88 375.019 262.217 374.659C261.555 374.299 261.037 373.809 260.666 373.188C260.295 372.566 260.109 371.86 260.109 371.068V363.364H261.172V370.994C261.172 371.612 261.31 372.163 261.587 372.648C261.863 373.129 262.251 373.508 262.751 373.784C263.255 374.061 263.844 374.199 264.519 374.199C265.193 374.199 265.782 374.061 266.286 373.784C266.789 373.508 267.178 373.129 267.45 372.648C267.727 372.163 267.865 371.612 267.865 370.994V363.364ZM271.295 364.318V363.364H279.733V364.318H276.045V375H274.983V364.318H271.295ZM294.348 363.364H295.411V371.068C295.411 371.86 295.225 372.568 294.854 373.193C294.483 373.814 293.966 374.305 293.303 374.665C292.644 375.021 291.877 375.199 291.002 375.199C290.131 375.199 289.364 375.019 288.701 374.659C288.038 374.299 287.521 373.809 287.15 373.188C286.778 372.566 286.593 371.86 286.593 371.068V363.364H287.655V370.994C287.655 371.612 287.793 372.163 288.07 372.648C288.346 373.129 288.735 373.508 289.235 373.784C289.739 374.061 290.328 374.199 291.002 374.199C291.676 374.199 292.265 374.061 292.769 373.784C293.273 373.508 293.661 373.129 293.934 372.648C294.21 372.163 294.348 371.612 294.348 370.994V363.364ZM304.801 366.273C304.737 365.625 304.451 365.11 303.943 364.727C303.436 364.345 302.797 364.153 302.028 364.153C301.487 364.153 301.009 364.246 300.597 364.432C300.188 364.617 299.866 364.875 299.631 365.205C299.4 365.53 299.284 365.902 299.284 366.318C299.284 366.625 299.35 366.894 299.483 367.125C299.616 367.356 299.794 367.555 300.017 367.722C300.244 367.884 300.494 368.025 300.767 368.142C301.044 368.259 301.322 368.358 301.602 368.438L302.83 368.79C303.201 368.892 303.572 369.023 303.943 369.182C304.314 369.341 304.653 369.542 304.96 369.784C305.271 370.023 305.519 370.316 305.705 370.665C305.894 371.009 305.989 371.424 305.989 371.909C305.989 372.53 305.828 373.089 305.506 373.585C305.184 374.081 304.722 374.475 304.119 374.767C303.517 375.055 302.795 375.199 301.955 375.199C301.163 375.199 300.475 375.068 299.892 374.807C299.309 374.542 298.85 374.176 298.517 373.71C298.184 373.244 297.996 372.705 297.955 372.091H299.045C299.083 372.549 299.235 372.937 299.5 373.256C299.765 373.574 300.11 373.816 300.534 373.983C300.958 374.146 301.432 374.227 301.955 374.227C302.534 374.227 303.049 374.131 303.5 373.938C303.955 373.741 304.311 373.468 304.568 373.119C304.83 372.767 304.96 372.358 304.96 371.892C304.96 371.498 304.858 371.169 304.653 370.903C304.449 370.634 304.163 370.409 303.795 370.227C303.432 370.045 303.009 369.884 302.528 369.744L301.136 369.335C300.223 369.062 299.515 368.686 299.011 368.205C298.508 367.723 298.256 367.11 298.256 366.364C298.256 365.739 298.422 365.189 298.756 364.716C299.093 364.239 299.547 363.867 300.119 363.602C300.695 363.333 301.341 363.199 302.057 363.199C302.78 363.199 303.42 363.331 303.977 363.597C304.534 363.862 304.975 364.227 305.301 364.693C305.631 365.155 305.807 365.682 305.83 366.273H304.801Z" fill="black"/>
<line x1="487" y1="279.5" x2="635.746" y2="279.5" stroke="black"/>
<line x1="487" y1="279.5" x2="670" y2="279.5" stroke="black"/>
<path d="M509.761 271V256.455H514.847C515.86 256.455 516.696 256.63 517.354 256.98C518.012 257.326 518.502 257.792 518.824 258.379C519.146 258.962 519.307 259.608 519.307 260.318C519.307 260.943 519.196 261.459 518.973 261.866C518.755 262.274 518.466 262.596 518.107 262.832C517.751 263.069 517.366 263.244 516.949 263.358V263.5C517.394 263.528 517.841 263.685 518.291 263.969C518.741 264.253 519.117 264.66 519.42 265.19C519.723 265.721 519.875 266.369 519.875 267.136C519.875 267.866 519.709 268.521 519.378 269.104C519.046 269.686 518.523 270.148 517.808 270.489C517.093 270.83 516.163 271 515.017 271H509.761ZM511.523 269.438H515.017C516.168 269.438 516.984 269.215 517.467 268.77C517.955 268.32 518.199 267.776 518.199 267.136C518.199 266.644 518.073 266.189 517.822 265.773C517.571 265.351 517.214 265.015 516.75 264.764C516.286 264.509 515.737 264.381 515.102 264.381H511.523V269.438ZM511.523 262.847H514.79C515.32 262.847 515.798 262.742 516.224 262.534C516.655 262.326 516.996 262.032 517.247 261.653C517.503 261.275 517.631 260.83 517.631 260.318C517.631 259.679 517.408 259.137 516.963 258.692C516.518 258.242 515.813 258.017 514.847 258.017H511.523V262.847ZM522.749 271V256.455H531.528V258.017H524.511V262.932H531.073V264.494H524.511V269.438H531.641V271H522.749ZM542.503 251.767V275.688H541.083V251.767H542.503ZM552.415 271V256.455H554.177V263.67H554.347L560.881 256.455H563.182L557.074 263.017L563.182 271H561.052L555.995 264.239L554.177 266.284V271H552.415ZM567.204 256.455V271H565.442V256.455H567.204ZM570.715 256.455H572.817L577.761 268.528H577.931L582.874 256.455H584.976V271H583.329V259.949H583.187L578.641 271H577.05L572.505 259.949H572.363V271H570.715V256.455ZM593.298 258.017V256.455H604.207V258.017H599.633V271H597.871V258.017H593.298ZM605.802 271H603.956L609.297 256.455H611.115L616.456 271H614.609L610.263 258.756H610.149L605.802 271ZM606.484 265.318H613.927V266.881H606.484V265.318ZM618.702 271V256.455H627.48V258.017H620.463V262.932H627.025V264.494H620.463V269.438H627.594V271H618.702ZM632.396 256.455V271H630.635V256.455H632.396ZM635.908 271V256.455H637.669V263.67H637.839L644.374 256.455H646.675L640.567 263.017L646.675 271H644.544L639.487 264.239L637.669 266.284V271H635.908Z" fill="black"/>
<line x1="682" y1="419.5" x2="830.746" y2="419.5" stroke="black"/>
<line x1="682" y1="419.5" x2="865" y2="419.5" stroke="black"/>
<path d="M698.761 411V396.455H703.847C704.86 396.455 705.696 396.63 706.354 396.98C707.012 397.326 707.502 397.792 707.824 398.379C708.146 398.962 708.307 399.608 708.307 400.318C708.307 400.943 708.196 401.459 707.973 401.866C707.755 402.274 707.466 402.596 707.107 402.832C706.751 403.069 706.366 403.244 705.949 403.358V403.5C706.394 403.528 706.841 403.685 707.291 403.969C707.741 404.253 708.117 404.66 708.42 405.19C708.723 405.721 708.875 406.369 708.875 407.136C708.875 407.866 708.709 408.521 708.378 409.104C708.046 409.686 707.523 410.148 706.808 410.489C706.093 410.83 705.163 411 704.017 411H698.761ZM700.523 409.438H704.017C705.168 409.438 705.984 409.215 706.467 408.77C706.955 408.32 707.199 407.776 707.199 407.136C707.199 406.644 707.073 406.189 706.822 405.773C706.571 405.351 706.214 405.015 705.75 404.764C705.286 404.509 704.737 404.381 704.102 404.381H700.523V409.438ZM700.523 402.847H703.79C704.32 402.847 704.798 402.742 705.224 402.534C705.655 402.326 705.996 402.032 706.247 401.653C706.503 401.275 706.631 400.83 706.631 400.318C706.631 399.679 706.408 399.137 705.963 398.692C705.518 398.242 704.813 398.017 703.847 398.017H700.523V402.847ZM711.749 411V396.455H720.528V398.017H713.511V402.932H720.073V404.494H713.511V409.438H720.641V411H711.749ZM731.503 391.767V415.688H730.083V391.767H731.503ZM753.688 403.727C753.688 405.261 753.411 406.587 752.857 407.705C752.303 408.822 751.543 409.684 750.577 410.29C749.611 410.896 748.508 411.199 747.268 411.199C746.027 411.199 744.924 410.896 743.958 410.29C742.992 409.684 742.232 408.822 741.678 407.705C741.124 406.587 740.847 405.261 740.847 403.727C740.847 402.193 741.124 400.867 741.678 399.75C742.232 398.633 742.992 397.771 743.958 397.165C744.924 396.559 746.027 396.256 747.268 396.256C748.508 396.256 749.611 396.559 750.577 397.165C751.543 397.771 752.303 398.633 752.857 399.75C753.411 400.867 753.688 402.193 753.688 403.727ZM751.983 403.727C751.983 402.468 751.773 401.405 751.351 400.538C750.935 399.672 750.369 399.016 749.654 398.571C748.944 398.126 748.148 397.903 747.268 397.903C746.387 397.903 745.589 398.126 744.874 398.571C744.164 399.016 743.598 399.672 743.177 400.538C742.76 401.405 742.552 402.468 742.552 403.727C742.552 404.987 742.76 406.05 743.177 406.916C743.598 407.783 744.164 408.438 744.874 408.884C745.589 409.329 746.387 409.551 747.268 409.551C748.148 409.551 748.944 409.329 749.654 408.884C750.369 408.438 750.935 407.783 751.351 406.916C751.773 406.05 751.983 404.987 751.983 403.727ZM756.63 411V396.455H758.391V402.932H766.147V396.455H767.908V411H766.147V404.494H758.391V411H756.63ZM782.588 396.455H784.349V406.852C784.349 407.78 784.178 408.569 783.838 409.217C783.497 409.866 783.016 410.358 782.396 410.695C781.775 411.031 781.044 411.199 780.201 411.199C779.406 411.199 778.698 411.054 778.078 410.766C777.457 410.472 776.97 410.055 776.614 409.516C776.259 408.976 776.082 408.334 776.082 407.591H777.815C777.815 408.003 777.917 408.363 778.12 408.67C778.329 408.973 778.613 409.21 778.972 409.381C779.332 409.551 779.742 409.636 780.201 409.636C780.708 409.636 781.139 409.53 781.494 409.317C781.849 409.104 782.119 408.791 782.303 408.379C782.493 407.963 782.588 407.454 782.588 406.852V396.455ZM789.62 396.455V411H787.859V396.455H789.62ZM801.086 400.091C801.001 399.371 800.655 398.812 800.049 398.415C799.443 398.017 798.7 397.818 797.819 397.818C797.175 397.818 796.612 397.922 796.129 398.131C795.651 398.339 795.277 398.625 795.007 398.99C794.742 399.355 794.609 399.769 794.609 400.233C794.609 400.621 794.701 400.955 794.886 401.234C795.075 401.509 795.317 401.739 795.61 401.923C795.904 402.103 796.212 402.252 796.534 402.371C796.856 402.484 797.152 402.577 797.421 402.648L798.899 403.045C799.278 403.145 799.699 403.282 800.163 403.457C800.632 403.633 801.079 403.872 801.505 404.175C801.936 404.473 802.291 404.857 802.571 405.325C802.85 405.794 802.99 406.369 802.99 407.051C802.99 407.837 802.784 408.547 802.372 409.182C801.965 409.816 801.368 410.321 800.582 410.695C799.801 411.069 798.851 411.256 797.734 411.256C796.692 411.256 795.79 411.088 795.028 410.751C794.27 410.415 793.674 409.946 793.238 409.345C792.807 408.744 792.563 408.045 792.507 407.25H794.325C794.372 407.799 794.557 408.254 794.879 408.614C795.206 408.969 795.617 409.234 796.115 409.409C796.617 409.58 797.156 409.665 797.734 409.665C798.406 409.665 799.01 409.556 799.545 409.338C800.08 409.116 800.504 408.808 800.816 408.415C801.129 408.017 801.285 407.553 801.285 407.023C801.285 406.54 801.15 406.147 800.88 405.844C800.61 405.541 800.255 405.295 799.815 405.105C799.375 404.916 798.899 404.75 798.387 404.608L796.598 404.097C795.461 403.77 794.562 403.304 793.899 402.697C793.236 402.091 792.904 401.298 792.904 400.318C792.904 399.504 793.125 398.794 793.565 398.188C794.01 397.577 794.607 397.103 795.355 396.767C796.108 396.426 796.948 396.256 797.876 396.256C798.813 396.256 799.647 396.424 800.376 396.76C801.105 397.091 801.683 397.546 802.109 398.124C802.54 398.701 802.767 399.357 802.791 400.091H801.086ZM818.138 403.727C818.138 405.261 817.861 406.587 817.307 407.705C816.753 408.822 815.993 409.684 815.028 410.29C814.062 410.896 812.958 411.199 811.718 411.199C810.477 411.199 809.374 410.896 808.408 410.29C807.442 409.684 806.682 408.822 806.128 407.705C805.574 406.587 805.297 405.261 805.297 403.727C805.297 402.193 805.574 400.867 806.128 399.75C806.682 398.633 807.442 397.771 808.408 397.165C809.374 396.559 810.477 396.256 811.718 396.256C812.958 396.256 814.062 396.559 815.028 397.165C815.993 397.771 816.753 398.633 817.307 399.75C817.861 400.867 818.138 402.193 818.138 403.727ZM816.434 403.727C816.434 402.468 816.223 401.405 815.802 400.538C815.385 399.672 814.819 399.016 814.104 398.571C813.394 398.126 812.599 397.903 811.718 397.903C810.837 397.903 810.039 398.126 809.324 398.571C808.614 399.016 808.048 399.672 807.627 400.538C807.21 401.405 807.002 402.468 807.002 403.727C807.002 404.987 807.21 406.05 807.627 406.916C808.048 407.783 808.614 408.438 809.324 408.884C810.039 409.329 810.837 409.551 811.718 409.551C812.599 409.551 813.394 409.329 814.104 408.884C814.819 408.438 815.385 407.783 815.802 406.916C816.223 406.05 816.434 404.987 816.434 403.727ZM832.614 396.455V411H830.91L822.983 399.58H822.841V411H821.08V396.455H822.785L830.739 407.903H830.881V396.455H832.614ZM846.062 401C845.905 400.522 845.7 400.093 845.444 399.714C845.193 399.331 844.892 399.004 844.542 398.734C844.196 398.464 843.803 398.259 843.363 398.116C842.923 397.974 842.44 397.903 841.914 397.903C841.052 397.903 840.269 398.126 839.563 398.571C838.858 399.016 838.297 399.672 837.88 400.538C837.463 401.405 837.255 402.468 837.255 403.727C837.255 404.987 837.466 406.05 837.887 406.916C838.308 407.783 838.879 408.438 839.599 408.884C840.318 409.329 841.128 409.551 842.028 409.551C842.861 409.551 843.595 409.374 844.229 409.018C844.869 408.659 845.366 408.152 845.721 407.499C846.081 406.84 846.261 406.066 846.261 405.176L846.8 405.29H842.425V403.727H847.965V405.29C847.965 406.488 847.709 407.529 847.198 408.415C846.691 409.3 845.991 409.987 845.096 410.474C844.206 410.957 843.183 411.199 842.028 411.199C840.74 411.199 839.608 410.896 838.633 410.29C837.662 409.684 836.905 408.822 836.36 407.705C835.82 406.587 835.55 405.261 835.55 403.727C835.55 402.577 835.704 401.542 836.012 400.624C836.325 399.7 836.765 398.914 837.333 398.266C837.901 397.617 838.574 397.12 839.35 396.774C840.127 396.429 840.981 396.256 841.914 396.256C842.681 396.256 843.396 396.372 844.059 396.604C844.727 396.831 845.321 397.155 845.842 397.577C846.367 397.993 846.805 398.493 847.155 399.075C847.506 399.653 847.747 400.295 847.88 401H846.062Z" fill="black"/>
<path d="M488.841 307.318V306.364H497.278V307.318H493.591V318H492.528V307.318H488.841ZM498.312 318H497.198L501.431 306.364H502.568L506.801 318H505.687L502.039 307.744H501.96L498.312 318ZM499.113 313.54H504.886V314.494H499.113V313.54ZM508.779 318V306.364H512.705C513.463 306.364 514.093 306.496 514.597 306.761C515.105 307.027 515.486 307.388 515.739 307.847C515.993 308.305 516.12 308.826 516.12 309.409C516.12 309.894 516.039 310.309 515.876 310.653C515.713 310.998 515.491 311.277 515.211 311.489C514.931 311.701 514.618 311.854 514.273 311.949V312.04C514.648 312.066 515.012 312.199 515.364 312.438C515.717 312.672 516.006 313.002 516.234 313.426C516.461 313.85 516.575 314.358 516.575 314.949C516.575 315.536 516.444 316.061 516.182 316.523C515.921 316.981 515.52 317.343 514.978 317.608C514.44 317.869 513.754 318 512.921 318H508.779ZM509.842 317.045H512.921C513.819 317.045 514.482 316.847 514.91 316.449C515.342 316.051 515.557 315.551 515.557 314.949C515.557 314.506 515.45 314.104 515.234 313.744C515.022 313.381 514.72 313.093 514.33 312.881C513.944 312.669 513.489 312.562 512.967 312.562H509.842V317.045ZM509.842 311.619H512.802C513.26 311.619 513.662 311.525 514.006 311.335C514.351 311.146 514.62 310.884 514.813 310.551C515.006 310.218 515.103 309.837 515.103 309.409C515.103 308.792 514.902 308.29 514.501 307.903C514.099 307.513 513.501 307.318 512.705 307.318H509.842V311.619ZM519.122 318V306.364H520.185V317.045H525.73V318H519.122ZM528.106 318V306.364H534.856V307.318H529.169V311.699H534.499V312.653H529.169V317.045H534.97V318H528.106ZM545.484 318H542.074V306.364H545.688C546.798 306.364 547.747 306.595 548.535 307.057C549.326 307.519 549.932 308.182 550.353 309.045C550.773 309.909 550.984 310.945 550.984 312.153C550.984 313.373 550.768 314.42 550.336 315.295C549.908 316.167 549.283 316.835 548.461 317.301C547.643 317.767 546.65 318 545.484 318ZM543.137 317.045H545.421C546.421 317.045 547.258 316.848 547.932 316.455C548.607 316.061 549.112 315.498 549.449 314.767C549.787 314.036 549.955 313.165 549.955 312.153C549.951 311.15 549.785 310.286 549.455 309.562C549.129 308.839 548.645 308.284 548.001 307.898C547.36 307.511 546.569 307.318 545.626 307.318H543.137V317.045ZM553.543 318V306.364H560.293V307.318H554.605V311.699H559.935V312.653H554.605V317.045H560.406V318H553.543ZM569.345 309.273C569.281 308.625 568.995 308.11 568.487 307.727C567.979 307.345 567.341 307.153 566.572 307.153C566.031 307.153 565.553 307.246 565.14 307.432C564.731 307.617 564.409 307.875 564.175 308.205C563.943 308.53 563.828 308.902 563.828 309.318C563.828 309.625 563.894 309.894 564.027 310.125C564.159 310.356 564.337 310.555 564.561 310.722C564.788 310.884 565.038 311.025 565.311 311.142C565.587 311.259 565.866 311.358 566.146 311.438L567.373 311.79C567.745 311.892 568.116 312.023 568.487 312.182C568.858 312.341 569.197 312.542 569.504 312.784C569.815 313.023 570.063 313.316 570.248 313.665C570.438 314.009 570.533 314.424 570.533 314.909C570.533 315.53 570.372 316.089 570.05 316.585C569.728 317.081 569.265 317.475 568.663 317.767C568.061 318.055 567.339 318.199 566.498 318.199C565.707 318.199 565.019 318.068 564.436 317.807C563.853 317.542 563.394 317.176 563.061 316.71C562.728 316.244 562.54 315.705 562.498 315.091H563.589C563.627 315.549 563.779 315.937 564.044 316.256C564.309 316.574 564.654 316.816 565.078 316.983C565.502 317.146 565.976 317.227 566.498 317.227C567.078 317.227 567.593 317.131 568.044 316.938C568.498 316.741 568.854 316.468 569.112 316.119C569.373 315.767 569.504 315.358 569.504 314.892C569.504 314.498 569.402 314.169 569.197 313.903C568.993 313.634 568.707 313.409 568.339 313.227C567.976 313.045 567.553 312.884 567.072 312.744L565.68 312.335C564.767 312.062 564.059 311.686 563.555 311.205C563.051 310.723 562.8 310.11 562.8 309.364C562.8 308.739 562.966 308.189 563.3 307.716C563.637 307.239 564.091 306.867 564.663 306.602C565.239 306.333 565.885 306.199 566.601 306.199C567.324 306.199 567.964 306.331 568.521 306.597C569.078 306.862 569.519 307.227 569.845 307.693C570.175 308.155 570.351 308.682 570.373 309.273H569.345ZM574.136 306.364V318H573.073V306.364H574.136ZM585.265 310C585.159 309.614 585.003 309.252 584.799 308.915C584.594 308.574 584.34 308.277 584.037 308.023C583.738 307.765 583.392 307.564 582.998 307.42C582.608 307.277 582.172 307.205 581.691 307.205C580.933 307.205 580.255 307.402 579.657 307.795C579.058 308.189 578.585 308.758 578.236 309.5C577.892 310.242 577.719 311.136 577.719 312.182C577.719 313.223 577.894 314.116 578.242 314.858C578.59 315.6 579.068 316.17 579.674 316.568C580.284 316.962 580.981 317.159 581.765 317.159C582.481 317.159 583.113 317 583.662 316.682C584.212 316.364 584.64 315.909 584.947 315.318C585.257 314.727 585.409 314.025 585.401 313.21L585.742 313.318H582.015V312.364H586.435V313.318C586.435 314.311 586.234 315.169 585.833 315.892C585.431 316.616 584.88 317.174 584.179 317.568C583.479 317.962 582.674 318.159 581.765 318.159C580.75 318.159 579.861 317.915 579.1 317.426C578.339 316.934 577.746 316.241 577.322 315.347C576.901 314.449 576.691 313.394 576.691 312.182C576.691 311.269 576.812 310.445 577.054 309.71C577.297 308.975 577.64 308.347 578.083 307.824C578.53 307.301 579.058 306.902 579.668 306.625C580.278 306.345 580.952 306.205 581.691 306.205C582.327 306.205 582.909 306.305 583.435 306.506C583.965 306.706 584.431 306.983 584.833 307.335C585.238 307.684 585.57 308.087 585.827 308.545C586.089 309 586.265 309.485 586.356 310H585.265ZM598.119 306.364V318H597.085L590.21 308.256H590.119V318H589.057V306.364H590.085L596.983 316.119H597.074V306.364H598.119ZM497.301 335.364H498.364V343.068C498.364 343.86 498.178 344.568 497.807 345.193C497.436 345.814 496.919 346.305 496.256 346.665C495.597 347.021 494.83 347.199 493.955 347.199C493.083 347.199 492.316 347.019 491.653 346.659C490.991 346.299 490.473 345.809 490.102 345.188C489.731 344.566 489.545 343.86 489.545 343.068V335.364H490.608V342.994C490.608 343.612 490.746 344.163 491.023 344.648C491.299 345.129 491.688 345.508 492.188 345.784C492.691 346.061 493.28 346.199 493.955 346.199C494.629 346.199 495.218 346.061 495.722 345.784C496.225 345.508 496.614 345.129 496.886 344.648C497.163 344.163 497.301 343.612 497.301 342.994V335.364ZM507.754 338.273C507.689 337.625 507.404 337.11 506.896 336.727C506.388 336.345 505.75 336.153 504.981 336.153C504.439 336.153 503.962 336.246 503.549 336.432C503.14 336.617 502.818 336.875 502.583 337.205C502.352 337.53 502.237 337.902 502.237 338.318C502.237 338.625 502.303 338.894 502.436 339.125C502.568 339.356 502.746 339.555 502.97 339.722C503.197 339.884 503.447 340.025 503.72 340.142C503.996 340.259 504.275 340.358 504.555 340.438L505.782 340.79C506.154 340.892 506.525 341.023 506.896 341.182C507.267 341.341 507.606 341.542 507.913 341.784C508.224 342.023 508.472 342.316 508.657 342.665C508.847 343.009 508.941 343.424 508.941 343.909C508.941 344.53 508.78 345.089 508.458 345.585C508.136 346.081 507.674 346.475 507.072 346.767C506.47 347.055 505.748 347.199 504.907 347.199C504.116 347.199 503.428 347.068 502.845 346.807C502.261 346.542 501.803 346.176 501.47 345.71C501.136 345.244 500.949 344.705 500.907 344.091H501.998C502.036 344.549 502.188 344.937 502.453 345.256C502.718 345.574 503.063 345.816 503.487 345.983C503.911 346.146 504.385 346.227 504.907 346.227C505.487 346.227 506.002 346.131 506.453 345.938C506.907 345.741 507.263 345.468 507.521 345.119C507.782 344.767 507.913 344.358 507.913 343.892C507.913 343.498 507.811 343.169 507.606 342.903C507.402 342.634 507.116 342.409 506.748 342.227C506.385 342.045 505.962 341.884 505.481 341.744L504.089 341.335C503.176 341.062 502.468 340.686 501.964 340.205C501.46 339.723 501.208 339.11 501.208 338.364C501.208 337.739 501.375 337.189 501.708 336.716C502.046 336.239 502.5 335.867 503.072 335.602C503.648 335.333 504.294 335.199 505.01 335.199C505.733 335.199 506.373 335.331 506.93 335.597C507.487 335.862 507.928 336.227 508.254 336.693C508.583 337.155 508.76 337.682 508.782 338.273H507.754ZM511.482 347V335.364H518.232V336.318H512.545V340.699H517.874V341.653H512.545V346.045H518.346V347H511.482ZM520.966 347V335.364H524.722C525.548 335.364 526.237 335.513 526.79 335.812C527.347 336.108 527.765 336.519 528.046 337.045C528.33 337.568 528.472 338.169 528.472 338.847C528.472 339.525 528.33 340.123 528.046 340.642C527.765 341.161 527.349 341.566 526.796 341.858C526.243 342.15 525.557 342.295 524.739 342.295H521.54V341.324H524.711C525.317 341.324 525.82 341.223 526.222 341.023C526.627 340.822 526.928 340.536 527.125 340.165C527.326 339.794 527.426 339.354 527.426 338.847C527.426 338.339 527.326 337.896 527.125 337.517C526.925 337.134 526.622 336.839 526.216 336.631C525.815 336.422 525.307 336.318 524.693 336.318H522.029V347H520.966ZM526.097 341.75L528.961 347H527.733L524.898 341.75H526.097ZM535.545 347H534.431L538.664 335.364H539.801L544.034 347H542.92L539.272 336.744H539.193L535.545 347ZM536.346 342.54H542.119V343.494H536.346V342.54ZM546.012 347V335.364H549.768C550.593 335.364 551.283 335.523 551.836 335.841C552.393 336.155 552.811 336.583 553.091 337.125C553.376 337.667 553.518 338.277 553.518 338.955C553.518 339.633 553.377 340.244 553.097 340.79C552.817 341.331 552.4 341.761 551.847 342.08C551.294 342.394 550.607 342.551 549.785 342.551H546.83V341.597H549.756C550.366 341.597 550.872 341.483 551.273 341.256C551.675 341.025 551.974 340.71 552.171 340.312C552.372 339.915 552.472 339.462 552.472 338.955C552.472 338.447 552.372 337.994 552.171 337.597C551.974 337.199 551.673 336.886 551.268 336.659C550.866 336.432 550.357 336.318 549.739 336.318H547.074V347H546.012ZM557.058 335.364V347H555.996V335.364H557.058ZM565.683 335.364V347H564.62V335.364H565.683ZM568.76 335.364H569.988L574.209 345.5H574.312L578.533 335.364H579.76V347H578.76V337.608H578.67L574.743 347H573.777L569.851 337.608H569.76V347H568.76V335.364ZM582.838 347V335.364H586.594C587.42 335.364 588.109 335.523 588.662 335.841C589.219 336.155 589.637 336.583 589.918 337.125C590.202 337.667 590.344 338.277 590.344 338.955C590.344 339.633 590.204 340.244 589.923 340.79C589.643 341.331 589.226 341.761 588.673 342.08C588.12 342.394 587.433 342.551 586.611 342.551H583.656V341.597H586.583C587.192 341.597 587.698 341.483 588.1 341.256C588.501 341.025 588.8 340.71 588.997 340.312C589.198 339.915 589.298 339.462 589.298 338.955C589.298 338.447 589.198 337.994 588.997 337.597C588.8 337.199 588.499 336.886 588.094 336.659C587.692 336.432 587.183 336.318 586.565 336.318H583.901V347H582.838ZM592.822 347V335.364H593.885V346.045H599.43V347H592.822ZM601.806 347V335.364H608.556V336.318H602.869V340.699H608.198V341.653H602.869V346.045H608.67V347H601.806ZM611.29 335.364H612.517L616.739 345.5H616.841L621.063 335.364H622.29V347H621.29V337.608H621.199L617.273 347H616.307L612.381 337.608H612.29V347H611.29V335.364ZM625.368 347V335.364H632.118V336.318H626.43V340.699H631.76V341.653H626.43V346.045H632.232V347H625.368ZM643.914 335.364V347H642.88L636.005 337.256H635.914V347H634.852V335.364H635.88L642.778 345.119H642.869V335.364H643.914ZM646.288 336.318V335.364H654.725V336.318H651.038V347H649.975V336.318H646.288ZM655.759 347H654.645L658.878 335.364H660.015L664.248 347H663.134L659.486 336.744H659.407L655.759 347ZM656.56 342.54H662.333V343.494H656.56V342.54ZM664.162 336.318V335.364H672.599V336.318H668.912V347H667.849V336.318H664.162ZM676.038 335.364V347H674.975V335.364H676.038ZM688.655 341.182C688.655 342.394 688.44 343.449 688.008 344.347C687.576 345.241 686.981 345.934 686.224 346.426C685.47 346.915 684.602 347.159 683.621 347.159C682.64 347.159 681.771 346.915 681.013 346.426C680.26 345.934 679.667 345.241 679.235 344.347C678.807 343.449 678.593 342.394 678.593 341.182C678.593 339.97 678.807 338.917 679.235 338.023C679.667 337.125 680.262 336.432 681.019 335.943C681.777 335.451 682.644 335.205 683.621 335.205C684.602 335.205 685.47 335.451 686.224 335.943C686.981 336.432 687.576 337.125 688.008 338.023C688.44 338.917 688.655 339.97 688.655 341.182ZM687.621 341.182C687.621 340.14 687.447 339.248 687.099 338.506C686.75 337.759 686.275 337.189 685.673 336.795C685.07 336.402 684.387 336.205 683.621 336.205C682.86 336.205 682.178 336.402 681.576 336.795C680.974 337.189 680.496 337.758 680.144 338.5C679.796 339.242 679.621 340.136 679.621 341.182C679.621 342.223 679.796 343.116 680.144 343.858C680.493 344.6 680.968 345.17 681.57 345.568C682.173 345.962 682.856 346.159 683.621 346.159C684.387 346.159 685.07 345.962 685.673 345.568C686.279 345.174 686.756 344.606 687.104 343.864C687.453 343.117 687.625 342.223 687.621 341.182ZM700.272 335.364V347H699.237L692.362 337.256H692.272V347H691.209V335.364H692.237L699.135 345.119H699.226V335.364H700.272Z" fill="black"/>
<path d="M787.631 451C787.525 450.614 787.37 450.252 787.165 449.915C786.961 449.574 786.707 449.277 786.404 449.023C786.105 448.765 785.758 448.564 785.364 448.42C784.974 448.277 784.538 448.205 784.057 448.205C783.3 448.205 782.622 448.402 782.023 448.795C781.425 449.189 780.951 449.758 780.603 450.5C780.258 451.242 780.086 452.136 780.086 453.182C780.086 454.223 780.26 455.116 780.608 455.858C780.957 456.6 781.434 457.17 782.04 457.568C782.65 457.962 783.347 458.159 784.131 458.159C784.847 458.159 785.48 458 786.029 457.682C786.578 457.364 787.006 456.909 787.313 456.318C787.624 455.727 787.775 455.025 787.768 454.21L788.108 454.318H784.381V453.364H788.802V454.318C788.802 455.311 788.601 456.169 788.199 456.892C787.798 457.616 787.247 458.174 786.546 458.568C785.845 458.962 785.04 459.159 784.131 459.159C783.116 459.159 782.228 458.915 781.466 458.426C780.705 457.934 780.112 457.241 779.688 456.347C779.268 455.449 779.057 454.394 779.057 453.182C779.057 452.269 779.179 451.445 779.421 450.71C779.663 449.975 780.006 449.347 780.449 448.824C780.896 448.301 781.425 447.902 782.035 447.625C782.644 447.345 783.319 447.205 784.057 447.205C784.694 447.205 785.275 447.305 785.802 447.506C786.332 447.706 786.798 447.983 787.199 448.335C787.605 448.684 787.936 449.087 788.194 449.545C788.455 450 788.631 450.485 788.722 451H787.631ZM799.179 447.364H800.242V455.068C800.242 455.86 800.056 456.568 799.685 457.193C799.314 457.814 798.797 458.305 798.134 458.665C797.475 459.021 796.708 459.199 795.833 459.199C794.961 459.199 794.194 459.019 793.531 458.659C792.869 458.299 792.351 457.809 791.98 457.188C791.609 456.566 791.423 455.86 791.423 455.068V447.364H792.486V454.994C792.486 455.612 792.624 456.163 792.901 456.648C793.177 457.129 793.565 457.508 794.065 457.784C794.569 458.061 795.158 458.199 795.833 458.199C796.507 458.199 797.096 458.061 797.6 457.784C798.103 457.508 798.492 457.129 798.764 456.648C799.041 456.163 799.179 455.612 799.179 454.994V447.364ZM803.314 459V447.364H810.064V448.318H804.376V452.699H809.706V453.653H804.376V458.045H810.177V459H803.314ZM819.116 450.273C819.051 449.625 818.766 449.11 818.258 448.727C817.75 448.345 817.112 448.153 816.343 448.153C815.801 448.153 815.324 448.246 814.911 448.432C814.502 448.617 814.18 448.875 813.945 449.205C813.714 449.53 813.599 449.902 813.599 450.318C813.599 450.625 813.665 450.894 813.798 451.125C813.93 451.356 814.108 451.555 814.332 451.722C814.559 451.884 814.809 452.025 815.082 452.142C815.358 452.259 815.637 452.358 815.917 452.438L817.144 452.79C817.516 452.892 817.887 453.023 818.258 453.182C818.629 453.341 818.968 453.542 819.275 453.784C819.586 454.023 819.834 454.316 820.019 454.665C820.209 455.009 820.303 455.424 820.303 455.909C820.303 456.53 820.142 457.089 819.82 457.585C819.498 458.081 819.036 458.475 818.434 458.767C817.832 459.055 817.11 459.199 816.269 459.199C815.478 459.199 814.79 459.068 814.207 458.807C813.623 458.542 813.165 458.176 812.832 457.71C812.498 457.244 812.311 456.705 812.269 456.091H813.36C813.398 456.549 813.55 456.937 813.815 457.256C814.08 457.574 814.425 457.816 814.849 457.983C815.273 458.146 815.747 458.227 816.269 458.227C816.849 458.227 817.364 458.131 817.815 457.938C818.269 457.741 818.625 457.468 818.883 457.119C819.144 456.767 819.275 456.358 819.275 455.892C819.275 455.498 819.173 455.169 818.968 454.903C818.764 454.634 818.478 454.409 818.11 454.227C817.747 454.045 817.324 453.884 816.843 453.744L815.451 453.335C814.538 453.062 813.83 452.686 813.326 452.205C812.822 451.723 812.57 451.11 812.57 450.364C812.57 449.739 812.737 449.189 813.07 448.716C813.408 448.239 813.862 447.867 814.434 447.602C815.01 447.333 815.656 447.199 816.372 447.199C817.095 447.199 817.735 447.331 818.292 447.597C818.849 447.862 819.29 448.227 819.616 448.693C819.945 449.155 820.122 449.682 820.144 450.273H819.116ZM822.14 448.318V447.364H830.577V448.318H826.89V459H825.827V448.318H822.14ZM837.454 459H836.341L840.574 447.364H841.71L845.943 459H844.829L841.182 448.744H841.102L837.454 459ZM838.255 454.54H844.028V455.494H838.255V454.54ZM847.921 459V447.364H851.677C852.503 447.364 853.192 447.523 853.745 447.841C854.302 448.155 854.72 448.583 855.001 449.125C855.285 449.667 855.427 450.277 855.427 450.955C855.427 451.633 855.287 452.244 855.006 452.79C854.726 453.331 854.309 453.761 853.756 454.08C853.203 454.394 852.516 454.551 851.694 454.551H848.739V453.597H851.666C852.275 453.597 852.781 453.483 853.183 453.256C853.584 453.025 853.883 452.71 854.08 452.312C854.281 451.915 854.381 451.462 854.381 450.955C854.381 450.447 854.281 449.994 854.08 449.597C853.883 449.199 853.582 448.886 853.177 448.659C852.775 448.432 852.266 448.318 851.648 448.318H848.984V459H847.921ZM858.968 447.364V459H857.905V447.364H858.968ZM728.863 476.364V488H727.8V476.364H728.863ZM731.941 476.364H733.168L737.389 486.5H737.492L741.713 476.364H742.941V488H741.941V478.608H741.85L737.924 488H736.958L733.031 478.608H732.941V488H731.941V476.364ZM746.018 488V476.364H749.774C750.6 476.364 751.289 476.523 751.842 476.841C752.399 477.155 752.818 477.583 753.098 478.125C753.382 478.667 753.524 479.277 753.524 479.955C753.524 480.633 753.384 481.244 753.104 481.79C752.823 482.331 752.407 482.761 751.854 483.08C751.301 483.394 750.613 483.551 749.791 483.551H746.837V482.597H749.763C750.372 482.597 750.878 482.483 751.28 482.256C751.681 482.025 751.98 481.71 752.177 481.312C752.378 480.915 752.479 480.462 752.479 479.955C752.479 479.447 752.378 478.994 752.177 478.597C751.98 478.199 751.679 477.886 751.274 477.659C750.872 477.432 750.363 477.318 749.746 477.318H747.081V488H746.018ZM756.002 488V476.364H757.065V487.045H762.61V488H756.002ZM764.986 488V476.364H771.736V477.318H766.049V481.699H771.378V482.653H766.049V487.045H771.85V488H764.986ZM774.47 476.364H775.698L779.919 486.5H780.021L784.243 476.364H785.47V488H784.47V478.608H784.379L780.453 488H779.487L775.561 478.608H775.47V488H774.47V476.364ZM788.548 488V476.364H795.298V477.318H789.611V481.699H794.94V482.653H789.611V487.045H795.412V488H788.548ZM807.095 476.364V488H806.06L799.185 478.256H799.095V488H798.032V476.364H799.06L805.958 486.119H806.049V476.364H807.095ZM809.468 477.318V476.364H817.905V477.318H814.218V488H813.155V477.318H809.468ZM818.939 488H817.825L822.058 476.364H823.195L827.428 488H826.314L822.666 477.744H822.587L818.939 488ZM819.74 483.54H825.513V484.494H819.74V483.54ZM827.342 477.318V476.364H835.78V477.318H832.092V488H831.03V477.318H827.342ZM839.218 476.364V488H838.156V476.364H839.218ZM851.836 482.182C851.836 483.394 851.62 484.449 851.188 485.347C850.756 486.241 850.161 486.934 849.404 487.426C848.65 487.915 847.783 488.159 846.802 488.159C845.82 488.159 844.951 487.915 844.194 487.426C843.44 486.934 842.847 486.241 842.415 485.347C841.987 484.449 841.773 483.394 841.773 482.182C841.773 480.97 841.987 479.917 842.415 479.023C842.847 478.125 843.442 477.432 844.199 476.943C844.957 476.451 845.824 476.205 846.802 476.205C847.783 476.205 848.65 476.451 849.404 476.943C850.161 477.432 850.756 478.125 851.188 479.023C851.62 479.917 851.836 480.97 851.836 482.182ZM850.802 482.182C850.802 481.14 850.627 480.248 850.279 479.506C849.93 478.759 849.455 478.189 848.853 477.795C848.25 477.402 847.567 477.205 846.802 477.205C846.04 477.205 845.358 477.402 844.756 477.795C844.154 478.189 843.677 478.758 843.324 479.5C842.976 480.242 842.802 481.136 842.802 482.182C842.802 483.223 842.976 484.116 843.324 484.858C843.673 485.6 844.148 486.17 844.75 486.568C845.353 486.962 846.036 487.159 846.802 487.159C847.567 487.159 848.25 486.962 848.853 486.568C849.459 486.174 849.936 485.606 850.284 484.864C850.633 484.117 850.805 483.223 850.802 482.182ZM863.452 476.364V488H862.418L855.543 478.256H855.452V488H854.389V476.364H855.418L862.315 486.119H862.406V476.364H863.452Z" fill="black"/>
</svg>
