<svg width="325" height="555" viewBox="0 0 325 555" fill="none" xmlns="http://www.w3.org/2000/svg">
<rect x="108.5" y="0.5" width="216" height="318" stroke="black"/>
<rect x="0.5" y="220.5" width="216" height="334" stroke="black"/>
<line x1="176.254" y1="173.5" x2="325" y2="173.5" stroke="black"/>
<line x1="107.994" y1="60.5" x2="256.74" y2="60.5" stroke="black"/>
<line x1="107.994" y1="60.5" x2="256.74" y2="60.5" stroke="black"/>
<line x1="0.019043" y1="367.5" x2="148.765" y2="367.5" stroke="black"/>
<line x1="68.019" y1="447.5" x2="216.765" y2="447.5" stroke="black"/>
<path d="M192.428 167V155.364H199.405V156.614H193.837V160.545H198.883V161.795H193.837V167H192.428ZM201.803 167V155.364H208.825V156.614H203.212V160.545H208.462V161.795H203.212V165.75H208.916V167H201.803ZM217.606 151.614V170.75H216.47V151.614H217.606ZM234.763 155.364V167H233.399L227.058 157.864H226.945V167H225.536V155.364H226.899L233.263 164.523H233.377V155.364H234.763ZM238.044 167H236.567L240.839 155.364H242.294L246.567 167H245.089L241.612 157.205H241.521L238.044 167ZM238.589 162.455H244.544V163.705H238.589V162.455ZM248.363 155.364H250.045L253.999 165.023H254.136L258.09 155.364H259.772V167H258.454V158.159H258.34L254.704 167H253.431L249.795 158.159H249.681V167H248.363V155.364ZM275.02 159C274.895 158.617 274.73 158.275 274.526 157.972C274.325 157.665 274.084 157.403 273.804 157.188C273.528 156.972 273.213 156.807 272.861 156.693C272.509 156.58 272.122 156.523 271.702 156.523C271.012 156.523 270.385 156.701 269.821 157.057C269.257 157.413 268.808 157.938 268.474 158.631C268.141 159.324 267.974 160.174 267.974 161.182C267.974 162.189 268.143 163.04 268.48 163.733C268.817 164.426 269.274 164.951 269.849 165.307C270.425 165.663 271.073 165.841 271.793 165.841C272.459 165.841 273.046 165.699 273.554 165.415C274.065 165.127 274.463 164.722 274.747 164.199C275.035 163.672 275.179 163.053 275.179 162.341L275.611 162.432H272.111V161.182H276.543V162.432C276.543 163.39 276.338 164.223 275.929 164.932C275.524 165.64 274.963 166.189 274.247 166.58C273.535 166.966 272.717 167.159 271.793 167.159C270.762 167.159 269.857 166.917 269.077 166.432C268.3 165.947 267.694 165.258 267.259 164.364C266.827 163.47 266.611 162.409 266.611 161.182C266.611 160.261 266.734 159.434 266.98 158.699C267.23 157.96 267.582 157.331 268.037 156.812C268.492 156.294 269.029 155.896 269.651 155.619C270.272 155.343 270.956 155.205 271.702 155.205C272.315 155.205 272.887 155.297 273.418 155.483C273.952 155.665 274.427 155.924 274.844 156.261C275.264 156.595 275.615 156.994 275.895 157.46C276.175 157.922 276.368 158.436 276.474 159H275.02ZM280.349 155.364V167H278.94V155.364H280.349ZM283.158 167V155.364H287.09C287.999 155.364 288.746 155.519 289.329 155.83C289.912 156.136 290.344 156.559 290.624 157.097C290.905 157.634 291.045 158.246 291.045 158.932C291.045 159.617 290.905 160.225 290.624 160.756C290.344 161.286 289.914 161.703 289.335 162.006C288.755 162.305 288.014 162.455 287.113 162.455H283.931V161.182H287.067C287.689 161.182 288.189 161.091 288.567 160.909C288.95 160.727 289.227 160.47 289.397 160.136C289.571 159.799 289.658 159.398 289.658 158.932C289.658 158.466 289.571 158.059 289.397 157.71C289.223 157.362 288.944 157.093 288.562 156.903C288.179 156.71 287.674 156.614 287.045 156.614H284.567V167H283.158ZM288.636 161.773L291.499 167H289.863L287.045 161.773H288.636ZM294.786 155.364V167H293.377V155.364H294.786ZM297.595 155.364H299.277L303.231 165.023H303.368L307.322 155.364H309.004V167H307.686V158.159H307.572L303.936 167H302.663L299.027 158.159H298.913V167H297.595V155.364Z" fill="black"/>
<path d="M19.4281 361V349.364H23.4963C24.3069 349.364 24.9755 349.504 25.502 349.784C26.0285 350.061 26.4206 350.434 26.6781 350.903C26.9357 351.369 27.0645 351.886 27.0645 352.455C27.0645 352.955 26.9755 353.367 26.7975 353.693C26.6232 354.019 26.3921 354.277 26.1043 354.466C25.8202 354.655 25.5115 354.795 25.1781 354.886V355C25.5342 355.023 25.8921 355.148 26.252 355.375C26.6118 355.602 26.913 355.928 27.1554 356.352C27.3978 356.777 27.519 357.295 27.519 357.909C27.519 358.492 27.3865 359.017 27.1213 359.483C26.8562 359.949 26.4376 360.318 25.8656 360.591C25.2937 360.864 24.5493 361 23.6327 361H19.4281ZM20.8372 359.75H23.6327C24.5531 359.75 25.2065 359.572 25.5929 359.216C25.9831 358.856 26.1781 358.42 26.1781 357.909C26.1781 357.515 26.0778 357.152 25.877 356.818C25.6762 356.481 25.3903 356.212 25.019 356.011C24.6478 355.807 24.2084 355.705 23.7009 355.705H20.8372V359.75ZM20.8372 354.477H23.4509C23.8751 354.477 24.2577 354.394 24.5986 354.227C24.9433 354.061 25.216 353.826 25.4168 353.523C25.6213 353.22 25.7236 352.864 25.7236 352.455C25.7236 351.943 25.5456 351.509 25.1895 351.153C24.8334 350.794 24.269 350.614 23.4963 350.614H20.8372V354.477ZM29.8184 361V349.364H36.8411V350.614H31.2275V354.545H36.4775V355.795H31.2275V359.75H36.932V361H29.8184ZM45.6216 345.614V364.75H44.4852V345.614H45.6216ZM53.5513 361V349.364H54.9603V355.136H55.0967L60.324 349.364H62.1649L57.2785 354.614L62.1649 361H60.4603L56.4149 355.591L54.9603 357.227V361H53.5513ZM65.3818 349.364V361H63.9728V349.364H65.3818ZM68.1911 349.364H69.873L73.8275 359.023H73.9639L77.9184 349.364H79.6002V361H78.282V352.159H78.1684L74.532 361H73.2593L69.623 352.159H69.5093V361H68.1911V349.364ZM86.2571 350.614V349.364H94.9844V350.614H91.3253V361H89.9162V350.614H86.2571ZM96.261 361H94.7838L99.0565 349.364H100.511L104.784 361H103.306L99.8292 351.205H99.7383L96.261 361ZM96.8065 356.455H102.761V357.705H96.8065V356.455ZM106.58 361V349.364H113.603V350.614H107.989V354.545H113.239V355.795H107.989V359.75H113.694V361H106.58ZM117.536 349.364V361H116.127V349.364H117.536ZM120.345 361V349.364H121.754V355.136H121.891L127.118 349.364H128.959L124.072 354.614L128.959 361H127.254L123.209 355.591L121.754 357.227V361H120.345Z" fill="black"/>
<path d="M82.4281 441V429.364H86.4963C87.3069 429.364 87.9755 429.504 88.502 429.784C89.0285 430.061 89.4206 430.434 89.6781 430.903C89.9357 431.369 90.0645 431.886 90.0645 432.455C90.0645 432.955 89.9755 433.367 89.7975 433.693C89.6232 434.019 89.3921 434.277 89.1043 434.466C88.8202 434.655 88.5115 434.795 88.1781 434.886V435C88.5342 435.023 88.8921 435.148 89.252 435.375C89.6118 435.602 89.913 435.928 90.1554 436.352C90.3978 436.777 90.519 437.295 90.519 437.909C90.519 438.492 90.3865 439.017 90.1213 439.483C89.8562 439.949 89.4376 440.318 88.8656 440.591C88.2937 440.864 87.5493 441 86.6327 441H82.4281ZM83.8372 439.75H86.6327C87.5531 439.75 88.2065 439.572 88.5929 439.216C88.9831 438.856 89.1781 438.42 89.1781 437.909C89.1781 437.515 89.0778 437.152 88.877 436.818C88.6762 436.481 88.3903 436.212 88.019 436.011C87.6478 435.807 87.2084 435.705 86.7009 435.705H83.8372V439.75ZM83.8372 434.477H86.4509C86.8751 434.477 87.2577 434.394 87.5986 434.227C87.9433 434.061 88.216 433.826 88.4168 433.523C88.6213 433.22 88.7236 432.864 88.7236 432.455C88.7236 431.943 88.5456 431.509 88.1895 431.153C87.8334 430.794 87.269 430.614 86.4963 430.614H83.8372V434.477ZM92.8184 441V429.364H99.8411V430.614H94.2275V434.545H99.4775V435.795H94.2275V439.75H99.932V441H92.8184ZM108.622 425.614V444.75H107.485V425.614H108.622ZM126.369 435.182C126.369 436.409 126.148 437.47 125.705 438.364C125.261 439.258 124.654 439.947 123.881 440.432C123.108 440.917 122.225 441.159 121.233 441.159C120.241 441.159 119.358 440.917 118.585 440.432C117.813 439.947 117.205 439.258 116.761 438.364C116.318 437.47 116.097 436.409 116.097 435.182C116.097 433.955 116.318 432.894 116.761 432C117.205 431.106 117.813 430.417 118.585 429.932C119.358 429.447 120.241 429.205 121.233 429.205C122.225 429.205 123.108 429.447 123.881 429.932C124.654 430.417 125.261 431.106 125.705 432C126.148 432.894 126.369 433.955 126.369 435.182ZM125.006 435.182C125.006 434.174 124.837 433.324 124.5 432.631C124.167 431.938 123.714 431.413 123.142 431.057C122.574 430.701 121.938 430.523 121.233 430.523C120.529 430.523 119.89 430.701 119.318 431.057C118.75 431.413 118.297 431.938 117.96 432.631C117.627 433.324 117.46 434.174 117.46 435.182C117.46 436.189 117.627 437.04 117.96 437.733C118.297 438.426 118.75 438.951 119.318 439.307C119.89 439.663 120.529 439.841 121.233 439.841C121.938 439.841 122.574 439.663 123.142 439.307C123.714 438.951 124.167 438.426 124.5 437.733C124.837 437.04 125.006 436.189 125.006 435.182ZM128.723 441V429.364H130.132V434.545H136.336V429.364H137.745V441H136.336V435.795H130.132V441H128.723ZM149.489 429.364H150.898V437.682C150.898 438.424 150.762 439.055 150.489 439.574C150.216 440.093 149.832 440.487 149.336 440.756C148.839 441.025 148.254 441.159 147.58 441.159C146.944 441.159 146.377 441.044 145.881 440.812C145.385 440.578 144.995 440.244 144.711 439.812C144.427 439.381 144.285 438.867 144.285 438.273H145.671C145.671 438.602 145.752 438.89 145.915 439.136C146.082 439.379 146.309 439.568 146.597 439.705C146.885 439.841 147.213 439.909 147.58 439.909C147.985 439.909 148.33 439.824 148.614 439.653C148.898 439.483 149.114 439.233 149.262 438.903C149.413 438.57 149.489 438.163 149.489 437.682V429.364ZM155.115 429.364V441H153.706V429.364H155.115ZM164.288 432.273C164.22 431.697 163.943 431.25 163.458 430.932C162.974 430.614 162.379 430.455 161.674 430.455C161.159 430.455 160.708 430.538 160.322 430.705C159.94 430.871 159.64 431.1 159.424 431.392C159.212 431.684 159.106 432.015 159.106 432.386C159.106 432.697 159.18 432.964 159.328 433.188C159.479 433.407 159.672 433.591 159.907 433.739C160.142 433.883 160.388 434.002 160.646 434.097C160.904 434.187 161.14 434.261 161.356 434.318L162.538 434.636C162.841 434.716 163.178 434.826 163.549 434.966C163.924 435.106 164.282 435.297 164.623 435.54C164.968 435.778 165.252 436.085 165.476 436.46C165.699 436.835 165.811 437.295 165.811 437.841C165.811 438.47 165.646 439.038 165.316 439.545C164.991 440.053 164.513 440.456 163.885 440.756C163.26 441.055 162.5 441.205 161.606 441.205C160.773 441.205 160.051 441.07 159.441 440.801C158.835 440.532 158.358 440.157 158.01 439.676C157.665 439.195 157.47 438.636 157.424 438H158.879C158.917 438.439 159.065 438.803 159.322 439.091C159.583 439.375 159.913 439.587 160.311 439.727C160.712 439.864 161.144 439.932 161.606 439.932C162.144 439.932 162.627 439.845 163.055 439.67C163.483 439.492 163.822 439.246 164.072 438.932C164.322 438.614 164.447 438.242 164.447 437.818C164.447 437.432 164.339 437.117 164.123 436.875C163.907 436.633 163.623 436.436 163.271 436.284C162.919 436.133 162.538 436 162.129 435.886L160.697 435.477C159.788 435.216 159.068 434.843 158.538 434.358C158.008 433.873 157.743 433.239 157.743 432.455C157.743 431.803 157.919 431.235 158.271 430.75C158.627 430.261 159.104 429.883 159.703 429.614C160.305 429.341 160.977 429.205 161.72 429.205C162.47 429.205 163.137 429.339 163.72 429.608C164.303 429.873 164.765 430.237 165.106 430.699C165.451 431.161 165.633 431.686 165.652 432.273H164.288ZM177.93 435.182C177.93 436.409 177.708 437.47 177.265 438.364C176.822 439.258 176.214 439.947 175.441 440.432C174.668 440.917 173.786 441.159 172.793 441.159C171.801 441.159 170.918 440.917 170.146 440.432C169.373 439.947 168.765 439.258 168.322 438.364C167.879 437.47 167.657 436.409 167.657 435.182C167.657 433.955 167.879 432.894 168.322 432C168.765 431.106 169.373 430.417 170.146 429.932C170.918 429.447 171.801 429.205 172.793 429.205C173.786 429.205 174.668 429.447 175.441 429.932C176.214 430.417 176.822 431.106 177.265 432C177.708 432.894 177.93 433.955 177.93 435.182ZM176.566 435.182C176.566 434.174 176.397 433.324 176.06 432.631C175.727 431.938 175.274 431.413 174.702 431.057C174.134 430.701 173.498 430.523 172.793 430.523C172.089 430.523 171.451 430.701 170.879 431.057C170.31 431.413 169.858 431.938 169.521 432.631C169.187 433.324 169.021 434.174 169.021 435.182C169.021 436.189 169.187 437.04 169.521 437.733C169.858 438.426 170.31 438.951 170.879 439.307C171.451 439.663 172.089 439.841 172.793 439.841C173.498 439.841 174.134 439.663 174.702 439.307C175.274 438.951 175.727 438.426 176.06 437.733C176.397 437.04 176.566 436.189 176.566 435.182ZM189.51 429.364V441H188.147L181.806 431.864H181.692V441H180.283V429.364H181.647L188.01 438.523H188.124V429.364H189.51ZM200.268 433C200.143 432.617 199.979 432.275 199.774 431.972C199.573 431.665 199.333 431.403 199.053 431.188C198.776 430.972 198.462 430.807 198.109 430.693C197.757 430.58 197.371 430.523 196.95 430.523C196.261 430.523 195.634 430.701 195.07 431.057C194.505 431.413 194.056 431.938 193.723 432.631C193.39 433.324 193.223 434.174 193.223 435.182C193.223 436.189 193.392 437.04 193.729 437.733C194.066 438.426 194.522 438.951 195.098 439.307C195.674 439.663 196.321 439.841 197.041 439.841C197.708 439.841 198.295 439.699 198.803 439.415C199.314 439.127 199.712 438.722 199.996 438.199C200.284 437.672 200.428 437.053 200.428 436.341L200.859 436.432H197.359V435.182H201.791V436.432C201.791 437.39 201.587 438.223 201.178 438.932C200.772 439.64 200.212 440.189 199.496 440.58C198.784 440.966 197.965 441.159 197.041 441.159C196.011 441.159 195.106 440.917 194.325 440.432C193.549 439.947 192.943 439.258 192.507 438.364C192.075 437.47 191.859 436.409 191.859 435.182C191.859 434.261 191.982 433.434 192.229 432.699C192.479 431.96 192.831 431.331 193.285 430.812C193.74 430.294 194.278 429.896 194.899 429.619C195.52 429.343 196.204 429.205 196.95 429.205C197.564 429.205 198.136 429.297 198.666 429.483C199.2 429.665 199.676 429.924 200.092 430.261C200.513 430.595 200.863 430.994 201.143 431.46C201.424 431.922 201.617 432.436 201.723 433H200.268Z" fill="black"/>
<path d="M119.428 54V42.3636H126.405V43.6136H120.837V47.5455H125.883V48.7955H120.837V54H119.428ZM128.803 54V42.3636H135.825V43.6136H130.212V47.5455H135.462V48.7955H130.212V52.75H135.916V54H128.803ZM144.606 38.6136V57.75H143.47V38.6136H144.606ZM152.536 54V42.3636H153.945V48.1364H154.081L159.308 42.3636H161.149L156.263 47.6136L161.149 54H159.445L155.399 48.5909L153.945 50.2273V54H152.536ZM164.366 42.3636V54H162.957V42.3636H164.366ZM167.176 42.3636H168.857L172.812 52.0227H172.948L176.903 42.3636H178.585V54H177.266V45.1591H177.153L173.516 54H172.244L168.607 45.1591H168.494V54H167.176V42.3636ZM185.878 42.3636H187.56L191.514 52.0227H191.651L195.605 42.3636H197.287V54H195.969V45.1591H195.855L192.219 54H190.946L187.31 45.1591H187.196V54H185.878V42.3636ZM201.505 42.3636V54H200.096V42.3636H201.505ZM213.542 42.3636V54H212.178L205.837 44.8636H205.724V54H204.315V42.3636H205.678L212.042 51.5227H212.156V42.3636H213.542ZM222.709 45.2727C222.641 44.697 222.364 44.25 221.88 43.9318C221.395 43.6136 220.8 43.4545 220.096 43.4545C219.58 43.4545 219.13 43.5379 218.743 43.7045C218.361 43.8712 218.061 44.1004 217.846 44.392C217.633 44.6837 217.527 45.0152 217.527 45.3864C217.527 45.697 217.601 45.964 217.749 46.1875C217.9 46.4072 218.094 46.5909 218.328 46.7386C218.563 46.8826 218.81 47.0019 219.067 47.0966C219.325 47.1875 219.561 47.2614 219.777 47.3182L220.959 47.6364C221.262 47.7159 221.599 47.8258 221.971 47.9659C222.346 48.1061 222.703 48.2973 223.044 48.5398C223.389 48.7784 223.673 49.0852 223.897 49.4602C224.12 49.8352 224.232 50.2955 224.232 50.8409C224.232 51.4697 224.067 52.0379 223.738 52.5455C223.412 53.053 222.935 53.4564 222.306 53.7557C221.681 54.0549 220.921 54.2045 220.027 54.2045C219.194 54.2045 218.472 54.0701 217.863 53.8011C217.256 53.5322 216.779 53.1572 216.431 52.6761C216.086 52.1951 215.891 51.6364 215.846 51H217.3C217.338 51.4394 217.486 51.803 217.743 52.0909C218.005 52.375 218.334 52.5871 218.732 52.7273C219.133 52.8636 219.565 52.9318 220.027 52.9318C220.565 52.9318 221.048 52.8447 221.476 52.6705C221.904 52.4924 222.243 52.2462 222.493 51.9318C222.743 51.6136 222.868 51.2424 222.868 50.8182C222.868 50.4318 222.76 50.1174 222.544 49.875C222.328 49.6326 222.044 49.4356 221.692 49.2841C221.34 49.1326 220.959 49 220.55 48.8864L219.118 48.4773C218.209 48.2159 217.489 47.8428 216.959 47.358C216.429 46.8731 216.164 46.2386 216.164 45.4545C216.164 44.803 216.34 44.2348 216.692 43.75C217.048 43.2614 217.525 42.8826 218.124 42.6136C218.726 42.3409 219.399 42.2045 220.141 42.2045C220.891 42.2045 221.558 42.339 222.141 42.608C222.724 42.8731 223.186 43.2367 223.527 43.6989C223.872 44.161 224.054 44.6856 224.073 45.2727H222.709ZM226.533 54V42.3636H233.555V43.6136H227.942V47.5455H233.192V48.7955H227.942V52.75H233.646V54H226.533ZM245.897 48.1818C245.897 49.4091 245.676 50.4697 245.233 51.3636C244.789 52.2576 244.181 52.947 243.409 53.4318C242.636 53.9167 241.753 54.1591 240.761 54.1591C239.769 54.1591 238.886 53.9167 238.113 53.4318C237.34 52.947 236.733 52.2576 236.289 51.3636C235.846 50.4697 235.625 49.4091 235.625 48.1818C235.625 46.9545 235.846 45.8939 236.289 45C236.733 44.1061 237.34 43.4167 238.113 42.9318C238.886 42.447 239.769 42.2045 240.761 42.2045C241.753 42.2045 242.636 42.447 243.409 42.9318C244.181 43.4167 244.789 44.1061 245.233 45C245.676 45.8939 245.897 46.9545 245.897 48.1818ZM244.534 48.1818C244.534 47.1742 244.365 46.3239 244.028 45.6307C243.695 44.9375 243.242 44.4129 242.67 44.0568C242.102 43.7008 241.465 43.5227 240.761 43.5227C240.056 43.5227 239.418 43.7008 238.846 44.0568C238.278 44.4129 237.825 44.9375 237.488 45.6307C237.155 46.3239 236.988 47.1742 236.988 48.1818C236.988 49.1894 237.155 50.0398 237.488 50.733C237.825 51.4261 238.278 51.9508 238.846 52.3068C239.418 52.6629 240.056 52.8409 240.761 52.8409C241.465 52.8409 242.102 52.6629 242.67 52.3068C243.242 51.9508 243.695 51.4261 244.028 50.733C244.365 50.0398 244.534 49.1894 244.534 48.1818Z" fill="black"/>
<path d="M131.9 86.3636C131.843 85.7969 131.593 85.3461 131.149 85.0114C130.705 84.6766 130.146 84.5092 129.474 84.5092C129 84.5092 128.582 84.5904 128.221 84.7528C127.863 84.9152 127.581 85.1406 127.376 85.429C127.173 85.714 127.072 86.0388 127.072 86.4034C127.072 86.6719 127.13 86.9072 127.246 87.1094C127.362 87.3116 127.518 87.4856 127.714 87.6314C127.913 87.7739 128.131 87.8965 128.37 87.9993C128.612 88.102 128.855 88.1882 129.101 88.2578L130.175 88.5661C130.499 88.6555 130.824 88.7699 131.149 88.9091C131.474 89.0483 131.77 89.224 132.039 89.4361C132.311 89.6449 132.528 89.9018 132.69 90.2067C132.856 90.5083 132.939 90.8712 132.939 91.2955C132.939 91.839 132.798 92.3279 132.516 92.7621C132.234 93.1963 131.83 93.541 131.303 93.7962C130.776 94.0481 130.145 94.174 129.409 94.174C128.716 94.174 128.115 94.0597 127.604 93.831C127.094 93.599 126.693 93.2791 126.401 92.8714C126.109 92.4638 125.945 91.9915 125.909 91.4545H126.864C126.897 91.8556 127.029 92.1953 127.261 92.4737C127.493 92.7521 127.795 92.9643 128.166 93.1101C128.537 93.2526 128.952 93.3239 129.409 93.3239C129.916 93.3239 130.367 93.2393 130.761 93.0703C131.159 92.898 131.471 92.6593 131.696 92.3544C131.925 92.0462 132.039 91.6882 132.039 91.2805C132.039 90.9358 131.949 90.6475 131.77 90.4155C131.591 90.1802 131.341 89.983 131.02 89.8239C130.702 89.6648 130.332 89.5239 129.911 89.4013L128.693 89.0433C127.894 88.8047 127.274 88.4749 126.834 88.054C126.393 87.633 126.172 87.0961 126.172 86.4432C126.172 85.8963 126.318 85.4157 126.61 85.0014C126.905 84.5838 127.303 84.259 127.803 84.027C128.307 83.7917 128.872 83.674 129.498 83.674C130.131 83.674 130.692 83.79 131.179 84.022C131.666 84.254 132.052 84.5739 132.337 84.9815C132.626 85.3859 132.78 85.8466 132.8 86.3636H131.9ZM136.092 83.8182V94H135.162V83.8182H136.092ZM145.829 87C145.737 86.6619 145.601 86.3454 145.422 86.0504C145.243 85.7521 145.021 85.492 144.756 85.2699C144.494 85.0445 144.19 84.8688 143.846 84.7429C143.504 84.617 143.123 84.554 142.702 84.554C142.039 84.554 141.446 84.7263 140.923 85.071C140.399 85.4157 139.985 85.9129 139.68 86.5625C139.378 87.2121 139.227 87.9943 139.227 88.9091C139.227 89.8205 139.38 90.6011 139.685 91.2507C139.99 91.9003 140.407 92.3991 140.937 92.7472C141.471 93.0919 142.081 93.2642 142.767 93.2642C143.393 93.2642 143.947 93.125 144.427 92.8466C144.908 92.5682 145.283 92.1705 145.551 91.6534C145.823 91.1364 145.955 90.5215 145.949 89.8089L146.247 89.9034H142.986V89.0682H146.854V89.9034C146.854 90.7718 146.678 91.5225 146.327 92.1555C145.975 92.7886 145.493 93.2775 144.88 93.6222C144.267 93.9669 143.562 94.1392 142.767 94.1392C141.879 94.1392 141.101 93.9254 140.435 93.4979C139.769 93.067 139.25 92.4605 138.879 91.6783C138.511 90.8928 138.327 89.9697 138.327 88.9091C138.327 88.1103 138.433 87.3894 138.646 86.7464C138.858 86.1035 139.158 85.5533 139.545 85.0959C139.936 84.6385 140.399 84.2888 140.932 84.0469C141.466 83.8016 142.056 83.679 142.702 83.679C143.259 83.679 143.768 83.7668 144.229 83.9425C144.693 84.1181 145.1 84.3601 145.452 84.6683C145.806 84.9732 146.096 85.3262 146.322 85.7273C146.55 86.125 146.704 86.5492 146.784 87H145.829ZM157.077 83.8182V94H156.173L150.157 85.4737H150.077V94H149.148V83.8182H150.048L156.083 92.3544H156.163V83.8182H157.077ZM170.48 83.8182H171.41V90.5597C171.41 91.2524 171.247 91.8722 170.923 92.419C170.598 92.9626 170.145 93.3918 169.565 93.7067C168.989 94.0182 168.317 94.174 167.552 94.174C166.79 94.174 166.118 94.0166 165.538 93.7017C164.958 93.3868 164.506 92.9576 164.181 92.4141C163.856 91.8705 163.694 91.2524 163.694 90.5597V83.8182H164.624V90.495C164.624 91.0353 164.745 91.5175 164.987 91.9418C165.228 92.3627 165.568 92.6941 166.006 92.9361C166.446 93.178 166.962 93.299 167.552 93.299C168.142 93.299 168.657 93.178 169.098 92.9361C169.539 92.6941 169.879 92.3627 170.117 91.9418C170.359 91.5175 170.48 91.0353 170.48 90.495V83.8182ZM174.098 94V83.8182H177.384C178.107 83.8182 178.71 83.9574 179.194 84.2358C179.681 84.5109 180.047 84.8854 180.292 85.3594C180.541 85.8333 180.665 86.367 180.665 86.9602C180.665 87.5535 180.543 88.0888 180.297 88.5661C180.052 89.04 179.688 89.4162 179.204 89.6946C178.72 89.9697 178.118 90.1072 177.399 90.1072H174.814V89.272H177.374C177.908 89.272 178.35 89.1726 178.702 88.9737C179.053 88.7715 179.315 88.4964 179.487 88.1484C179.663 87.8004 179.751 87.4044 179.751 86.9602C179.751 86.5161 179.663 86.12 179.487 85.772C179.315 85.424 179.051 85.1506 178.697 84.9517C178.345 84.7528 177.899 84.6534 177.359 84.6534H175.028V94H174.098ZM126.386 108.818L129.568 117.792H129.658L132.839 108.818H133.814L130.11 119H129.116L125.412 108.818H126.386ZM143.414 113.909C143.414 114.97 143.225 115.893 142.847 116.678C142.469 117.46 141.949 118.067 141.286 118.498C140.626 118.925 139.867 119.139 139.009 119.139C138.15 119.139 137.39 118.925 136.727 118.498C136.067 118.067 135.549 117.46 135.171 116.678C134.796 115.893 134.609 114.97 134.609 113.909C134.609 112.848 134.796 111.927 135.171 111.145C135.549 110.359 136.069 109.753 136.732 109.325C137.395 108.894 138.154 108.679 139.009 108.679C139.867 108.679 140.626 108.894 141.286 109.325C141.949 109.753 142.469 110.359 142.847 111.145C143.225 111.927 143.414 112.848 143.414 113.909ZM142.509 113.909C142.509 112.998 142.356 112.217 142.051 111.567C141.746 110.915 141.331 110.416 140.804 110.071C140.277 109.726 139.678 109.554 139.009 109.554C138.343 109.554 137.746 109.726 137.219 110.071C136.692 110.416 136.274 110.913 135.966 111.562C135.661 112.212 135.509 112.994 135.509 113.909C135.509 114.821 135.661 115.601 135.966 116.251C136.271 116.9 136.687 117.399 137.214 117.747C137.741 118.092 138.339 118.264 139.009 118.264C139.678 118.264 140.277 118.092 140.804 117.747C141.334 117.402 141.751 116.905 142.056 116.256C142.361 115.603 142.512 114.821 142.509 113.909ZM144.608 109.653V108.818H151.991V109.653H148.764V119H147.834V109.653H144.608ZM154.999 108.818V119H154.07V108.818H154.999ZM165.622 108.818V119H164.717L158.702 110.474H158.622V119H157.692V108.818H158.592L164.628 117.354H164.707V108.818H165.622ZM175.36 112C175.267 111.662 175.131 111.345 174.952 111.05C174.773 110.752 174.551 110.492 174.286 110.27C174.024 110.045 173.721 109.869 173.376 109.743C173.035 109.617 172.654 109.554 172.233 109.554C171.57 109.554 170.976 109.726 170.453 110.071C169.929 110.416 169.515 110.913 169.21 111.562C168.908 112.212 168.757 112.994 168.757 113.909C168.757 114.821 168.91 115.601 169.215 116.251C169.52 116.9 169.937 117.399 170.468 117.747C171.001 118.092 171.611 118.264 172.297 118.264C172.924 118.264 173.477 118.125 173.958 117.847C174.438 117.568 174.813 117.17 175.081 116.653C175.353 116.136 175.486 115.522 175.479 114.809L175.777 114.903H172.516V114.068H176.384V114.903C176.384 115.772 176.208 116.522 175.857 117.156C175.506 117.789 175.023 118.277 174.41 118.622C173.797 118.967 173.093 119.139 172.297 119.139C171.409 119.139 170.632 118.925 169.966 118.498C169.299 118.067 168.781 117.46 168.409 116.678C168.042 115.893 167.858 114.97 167.858 113.909C167.858 113.11 167.964 112.389 168.176 111.746C168.388 111.103 168.688 110.553 169.076 110.096C169.467 109.638 169.929 109.289 170.463 109.047C170.996 108.802 171.586 108.679 172.233 108.679C172.789 108.679 173.298 108.767 173.759 108.942C174.223 109.118 174.631 109.36 174.982 109.668C175.337 109.973 175.627 110.326 175.852 110.727C176.081 111.125 176.235 111.549 176.314 112H175.36Z" fill="black"/>
<path d="M244.371 206V195.818H245.301V205.165H250.153V206H244.371ZM260.183 200.909C260.183 201.97 259.994 202.893 259.616 203.678C259.239 204.46 258.718 205.067 258.055 205.498C257.396 205.925 256.637 206.139 255.778 206.139C254.92 206.139 254.159 205.925 253.496 205.498C252.837 205.067 252.318 204.46 251.94 203.678C251.566 202.893 251.378 201.97 251.378 200.909C251.378 199.848 251.566 198.927 251.94 198.145C252.318 197.359 252.838 196.753 253.501 196.325C254.164 195.894 254.923 195.679 255.778 195.679C256.637 195.679 257.396 195.894 258.055 196.325C258.718 196.753 259.239 197.359 259.616 198.145C259.994 198.927 260.183 199.848 260.183 200.909ZM259.278 200.909C259.278 199.998 259.126 199.217 258.821 198.567C258.516 197.915 258.1 197.416 257.573 197.071C257.046 196.726 256.448 196.554 255.778 196.554C255.112 196.554 254.516 196.726 253.989 197.071C253.462 197.416 253.044 197.913 252.736 198.562C252.431 199.212 252.278 199.994 252.278 200.909C252.278 201.821 252.431 202.601 252.736 203.251C253.041 203.9 253.457 204.399 253.984 204.747C254.511 205.092 255.109 205.264 255.778 205.264C256.448 205.264 257.046 205.092 257.573 204.747C258.103 204.402 258.521 203.905 258.826 203.256C259.131 202.603 259.282 201.821 259.278 200.909ZM269.462 199C269.369 198.662 269.234 198.345 269.055 198.05C268.876 197.752 268.654 197.492 268.388 197.27C268.127 197.045 267.823 196.869 267.479 196.743C267.137 196.617 266.756 196.554 266.335 196.554C265.672 196.554 265.079 196.726 264.555 197.071C264.032 197.416 263.617 197.913 263.312 198.562C263.011 199.212 262.86 199.994 262.86 200.909C262.86 201.821 263.012 202.601 263.317 203.251C263.622 203.9 264.04 204.399 264.57 204.747C265.104 205.092 265.714 205.264 266.4 205.264C267.026 205.264 267.58 205.125 268.06 204.847C268.541 204.568 268.915 204.17 269.184 203.653C269.456 203.136 269.588 202.522 269.582 201.809L269.88 201.903H266.619V201.068H270.486V201.903C270.486 202.772 270.311 203.522 269.959 204.156C269.608 204.789 269.126 205.277 268.513 205.622C267.9 205.967 267.195 206.139 266.4 206.139C265.512 206.139 264.734 205.925 264.068 205.498C263.402 205.067 262.883 204.46 262.512 203.678C262.144 202.893 261.96 201.97 261.96 200.909C261.96 200.11 262.066 199.389 262.278 198.746C262.49 198.103 262.79 197.553 263.178 197.096C263.569 196.638 264.032 196.289 264.565 196.047C265.099 195.802 265.689 195.679 266.335 195.679C266.892 195.679 267.401 195.767 267.861 195.942C268.325 196.118 268.733 196.36 269.084 196.668C269.439 196.973 269.729 197.326 269.954 197.727C270.183 198.125 270.337 198.549 270.417 199H269.462ZM273.71 195.818V206H272.78V195.818H273.71ZM284.333 195.818V206H283.428L277.412 197.474H277.333V206H276.403V195.818H277.303L283.339 204.354H283.418V195.818H284.333ZM244.371 220.818H245.445L249.139 229.688H249.229L252.922 220.818H253.996V231H253.121V222.782H253.042L249.606 231H248.761L245.326 222.782H245.246V231H244.371V220.818ZM256.689 231V220.818H262.596V221.653H257.619V225.487H262.282V226.322H257.619V230.165H262.695V231H256.689ZM264.988 220.818H266.062L269.756 229.688H269.845L273.539 220.818H274.613V231H273.738V222.782H273.658L270.223 231H269.378L265.942 222.782H265.863V231H264.988V220.818ZM277.306 231V220.818H280.741C281.404 220.818 281.956 220.934 282.397 221.166C282.841 221.398 283.174 221.715 283.396 222.116C283.618 222.517 283.729 222.973 283.729 223.483C283.729 223.907 283.658 224.27 283.515 224.572C283.373 224.873 283.179 225.117 282.934 225.303C282.688 225.488 282.415 225.622 282.113 225.705V225.785C282.442 225.808 282.76 225.924 283.068 226.133C283.376 226.338 283.63 226.627 283.829 226.998C284.027 227.369 284.127 227.813 284.127 228.33C284.127 228.844 284.013 229.303 283.784 229.707C283.555 230.108 283.204 230.425 282.73 230.657C282.259 230.886 281.659 231 280.93 231H277.306ZM278.236 230.165H280.93C281.716 230.165 282.296 229.991 282.67 229.643C283.048 229.295 283.237 228.857 283.237 228.33C283.237 227.942 283.143 227.591 282.954 227.276C282.768 226.958 282.505 226.706 282.163 226.521C281.825 226.335 281.427 226.242 280.97 226.242H278.236V230.165ZM278.236 225.417H280.826C281.227 225.417 281.578 225.334 281.88 225.168C282.181 225.003 282.417 224.774 282.586 224.482C282.755 224.191 282.839 223.857 282.839 223.483C282.839 222.943 282.664 222.504 282.312 222.165C281.961 221.824 281.437 221.653 280.741 221.653H278.236V225.417ZM286.356 231V220.818H292.263V221.653H287.286V225.487H291.949V226.322H287.286V230.165H292.362V231H286.356ZM294.655 231V220.818H297.941C298.664 220.818 299.267 220.949 299.751 221.211C300.238 221.469 300.604 221.829 300.849 222.29C301.098 222.747 301.222 223.272 301.222 223.866C301.222 224.459 301.098 224.983 300.849 225.437C300.604 225.891 300.24 226.246 299.756 226.501C299.272 226.756 298.672 226.884 297.956 226.884H295.157V226.033H297.931C298.461 226.033 298.902 225.946 299.254 225.77C299.608 225.594 299.872 225.344 300.044 225.019C300.22 224.694 300.308 224.31 300.308 223.866C300.308 223.422 300.22 223.034 300.044 222.702C299.868 222.368 299.603 222.109 299.249 221.927C298.897 221.745 298.453 221.653 297.916 221.653H295.585V231H294.655ZM299.144 226.406L301.65 231H300.576L298.095 226.406H299.144ZM309.001 223.364C308.945 222.797 308.695 222.346 308.251 222.011C307.806 221.677 307.248 221.509 306.575 221.509C306.101 221.509 305.684 221.59 305.322 221.753C304.964 221.915 304.683 222.141 304.477 222.429C304.275 222.714 304.174 223.039 304.174 223.403C304.174 223.672 304.232 223.907 304.348 224.109C304.464 224.312 304.62 224.486 304.815 224.631C305.014 224.774 305.233 224.897 305.471 224.999C305.713 225.102 305.957 225.188 306.202 225.258L307.276 225.566C307.601 225.656 307.926 225.77 308.251 225.909C308.575 226.048 308.872 226.224 309.14 226.436C309.412 226.645 309.629 226.902 309.792 227.207C309.957 227.508 310.04 227.871 310.04 228.295C310.04 228.839 309.899 229.328 309.618 229.762C309.336 230.196 308.932 230.541 308.405 230.796C307.878 231.048 307.246 231.174 306.511 231.174C305.818 231.174 305.216 231.06 304.706 230.831C304.195 230.599 303.794 230.279 303.503 229.871C303.211 229.464 303.047 228.991 303.011 228.455H303.965C303.998 228.856 304.131 229.195 304.363 229.474C304.595 229.752 304.896 229.964 305.268 230.11C305.639 230.253 306.053 230.324 306.511 230.324C307.018 230.324 307.468 230.239 307.863 230.07C308.261 229.898 308.572 229.659 308.797 229.354C309.026 229.046 309.14 228.688 309.14 228.281C309.14 227.936 309.051 227.647 308.872 227.415C308.693 227.18 308.443 226.983 308.121 226.824C307.803 226.665 307.434 226.524 307.013 226.401L305.795 226.043C304.996 225.805 304.376 225.475 303.935 225.054C303.494 224.633 303.274 224.096 303.274 223.443C303.274 222.896 303.42 222.416 303.711 222.001C304.006 221.584 304.404 221.259 304.905 221.027C305.408 220.792 305.974 220.674 306.6 220.674C307.233 220.674 307.793 220.79 308.28 221.022C308.768 221.254 309.154 221.574 309.439 221.982C309.727 222.386 309.881 222.847 309.901 223.364H309.001ZM244.386 256H243.412L247.116 245.818H248.11L251.814 256H250.839L247.648 247.026H247.578L244.386 256ZM245.087 252.097H250.138V252.933H245.087V252.097ZM253.545 256V245.818H256.98C257.643 245.818 258.195 245.934 258.636 246.166C259.08 246.398 259.413 246.715 259.635 247.116C259.857 247.517 259.968 247.973 259.968 248.483C259.968 248.907 259.897 249.27 259.754 249.572C259.612 249.873 259.418 250.117 259.173 250.303C258.927 250.488 258.654 250.622 258.352 250.705V250.785C258.68 250.808 258.999 250.924 259.307 251.133C259.615 251.338 259.869 251.627 260.068 251.998C260.266 252.369 260.366 252.813 260.366 253.33C260.366 253.844 260.251 254.303 260.023 254.707C259.794 255.108 259.443 255.425 258.969 255.657C258.498 255.886 257.898 256 257.169 256H253.545ZM254.475 255.165H257.169C257.955 255.165 258.535 254.991 258.909 254.643C259.287 254.295 259.476 253.857 259.476 253.33C259.476 252.942 259.381 252.591 259.193 252.276C259.007 251.958 258.743 251.706 258.402 251.521C258.064 251.335 257.666 251.242 257.209 251.242H254.475V255.165ZM254.475 250.417H257.065C257.466 250.417 257.817 250.334 258.119 250.168C258.42 250.003 258.656 249.774 258.825 249.482C258.994 249.191 259.078 248.857 259.078 248.483C259.078 247.943 258.903 247.504 258.551 247.165C258.2 246.824 257.676 246.653 256.98 246.653H254.475V250.417ZM270.943 250.909C270.943 251.97 270.754 252.893 270.376 253.678C269.998 254.46 269.478 255.067 268.815 255.498C268.155 255.925 267.396 256.139 266.538 256.139C265.679 256.139 264.919 255.925 264.256 255.498C263.596 255.067 263.078 254.46 262.7 253.678C262.325 252.893 262.138 251.97 262.138 250.909C262.138 249.848 262.325 248.927 262.7 248.145C263.078 247.359 263.598 246.753 264.261 246.325C264.924 245.894 265.683 245.679 266.538 245.679C267.396 245.679 268.155 245.894 268.815 246.325C269.478 246.753 269.998 247.359 270.376 248.145C270.754 248.927 270.943 249.848 270.943 250.909ZM270.038 250.909C270.038 249.998 269.885 249.217 269.58 248.567C269.275 247.915 268.859 247.416 268.332 247.071C267.805 246.726 267.207 246.554 266.538 246.554C265.872 246.554 265.275 246.726 264.748 247.071C264.221 247.416 263.803 247.913 263.495 248.562C263.19 249.212 263.038 249.994 263.038 250.909C263.038 251.821 263.19 252.601 263.495 253.251C263.8 253.9 264.216 254.399 264.743 254.747C265.27 255.092 265.868 255.264 266.538 255.264C267.207 255.264 267.805 255.092 268.332 254.747C268.863 254.402 269.28 253.905 269.585 253.256C269.89 252.603 270.041 251.821 270.038 250.909ZM279.963 245.818H280.893V252.56C280.893 253.252 280.73 253.872 280.406 254.419C280.081 254.963 279.628 255.392 279.048 255.707C278.472 256.018 277.801 256.174 277.035 256.174C276.273 256.174 275.601 256.017 275.021 255.702C274.441 255.387 273.989 254.958 273.664 254.414C273.339 253.871 273.177 253.252 273.177 252.56V245.818H274.107V252.495C274.107 253.035 274.228 253.518 274.47 253.942C274.712 254.363 275.051 254.694 275.489 254.936C275.93 255.178 276.445 255.299 277.035 255.299C277.625 255.299 278.14 255.178 278.581 254.936C279.022 254.694 279.362 254.363 279.6 253.942C279.842 253.518 279.963 253.035 279.963 252.495V245.818ZM282.964 246.653V245.818H290.347V246.653H287.121V256H286.191V246.653H282.964ZM303.136 245.818H304.066V252.56C304.066 253.252 303.903 253.872 303.579 254.419C303.254 254.963 302.801 255.392 302.221 255.707C301.645 256.018 300.973 256.174 300.208 256.174C299.445 256.174 298.774 256.017 298.194 255.702C297.614 255.387 297.162 254.958 296.837 254.414C296.512 253.871 296.35 253.252 296.35 252.56V245.818H297.28V252.495C297.28 253.035 297.4 253.518 297.642 253.942C297.884 254.363 298.224 254.694 298.662 254.936C299.102 255.178 299.618 255.299 300.208 255.299C300.798 255.299 301.313 255.178 301.754 254.936C302.195 254.694 302.534 254.363 302.773 253.942C303.015 253.518 303.136 253.035 303.136 252.495V245.818ZM312.282 248.364C312.226 247.797 311.976 247.346 311.531 247.011C311.087 246.677 310.529 246.509 309.856 246.509C309.382 246.509 308.964 246.59 308.603 246.753C308.245 246.915 307.964 247.141 307.758 247.429C307.556 247.714 307.455 248.039 307.455 248.403C307.455 248.672 307.513 248.907 307.629 249.109C307.745 249.312 307.901 249.486 308.096 249.631C308.295 249.774 308.514 249.897 308.752 249.999C308.994 250.102 309.238 250.188 309.483 250.258L310.557 250.566C310.882 250.656 311.207 250.77 311.531 250.909C311.856 251.048 312.153 251.224 312.421 251.436C312.693 251.645 312.91 251.902 313.073 252.207C313.238 252.508 313.321 252.871 313.321 253.295C313.321 253.839 313.18 254.328 312.899 254.762C312.617 255.196 312.213 255.541 311.686 255.796C311.159 256.048 310.527 256.174 309.791 256.174C309.099 256.174 308.497 256.06 307.987 255.831C307.476 255.599 307.075 255.279 306.784 254.871C306.492 254.464 306.328 253.991 306.291 253.455H307.246C307.279 253.856 307.412 254.195 307.644 254.474C307.876 254.752 308.177 254.964 308.549 255.11C308.92 255.253 309.334 255.324 309.791 255.324C310.299 255.324 310.749 255.239 311.144 255.07C311.541 254.898 311.853 254.659 312.078 254.354C312.307 254.046 312.421 253.688 312.421 253.281C312.421 252.936 312.332 252.647 312.153 252.415C311.974 252.18 311.724 251.983 311.402 251.824C311.084 251.665 310.714 251.524 310.294 251.401L309.076 251.043C308.277 250.805 307.657 250.475 307.216 250.054C306.775 249.633 306.555 249.096 306.555 248.443C306.555 247.896 306.701 247.416 306.992 247.001C307.287 246.584 307.685 246.259 308.186 246.027C308.689 245.792 309.254 245.674 309.881 245.674C310.514 245.674 311.074 245.79 311.561 246.022C312.049 246.254 312.435 246.574 312.72 246.982C313.008 247.386 313.162 247.847 313.182 248.364H312.282Z" fill="black"/>
</svg>
